<svg xmlns="http://www.w3.org/2000/svg" viewBox="0 0 112.5 112.5" version="1.2" height="150" width="150"><defs><clipPath id="a"><path d="M70 109h8v3.004h-8z"></path></clipPath><clipPath id="b"><path d="M91 78h5.773v4H91z"></path></clipPath><clipPath id="c"><path d="M78 67h18.773v20H78z"></path></clipPath><clipPath id="d"><path d="M95 78h1.773v3H95z"></path></clipPath><clipPath id="e"><path d="M78 67h18.773v12H78z"></path></clipPath><clipPath id="f"><path d="M77 67h19.773v12H77z"></path></clipPath><clipPath id="g"><path d="M70.586 108.89h6.902V112h-6.902z"></path></clipPath><clipPath id="h"><path d="M91.238 78.332h5.535v3.734h-5.535z"></path></clipPath></defs><path fill="#d08f5c" d="M30.52 57.09c1.324.547 2.707.871 4.254.844-.11.113-.223.222-.34.328a3.842 3.842 0 01-1.215.687c-1.082-.543-1.894-1.152-2.699-1.859M34.898 80.488c-.879-.082-1.809-.633-2.39-1.293-.583-.656-1.012-1.434-1.508-2.16-.496-.723-1.086-1.422-1.871-1.817-.75-.379-1.633-.449-2.465-.316-.828.137-1.617.465-2.367.848a15.902 15.902 0 00-5.915 5.293l.04.062c.144-.137.312-.246.503-.312.465-.153.989 0 1.383.285.203.148.38.332.54.527.007-.031.015-.062.027-.09.183-.52.453-.98.816-1.39.14-.164.27-.336.41-.5.133-.157.285-.293.445-.418.364-.29.739-.543 1.16-.73.43-.192.864-.348 1.329-.434.441-.082.926-.153 1.375-.098.336.043.61.117.918.258.234.11.449.262.644.43.332.285.496.664.66 1.054.164.38.36.742.524 1.121.101.239.203.48.285.727.043.133.082.27.129.398.02.04.039.078.062.114l.036.035c.125.117.199.258.234.41 1.18 1.527 2.262 2.61 3.894 3.277l.172-.527c.094-.817.223-1.629.38-2.43.156-.777.34-1.558.613-2.297l-.063-.027"></path><path fill="#7c4100" d="M18.168 91.418c-.29 1.777-.293 3.195-.23 5.09-2.086-4.465-2.157-9.828-.184-14.344.168-.383.375-.781.668-1.059.144-.137.312-.246.504-.312.465-.153.988 0 1.383.285.394.289.683.695.949 1.11.156.245.308.495.457.745 3.305 5.7 3.652 12.863 7.308 18.375a19.085 19.085 0 01-3.472-2.539l-.035.043c-.73.133-1.473-.125-2.137-.457a9.782 9.782 0 01-4.074-3.832 9.677 9.677 0 01-1.137-3.105"></path><path fill="#79453b" d="M41.359 109.75a.422.422 0 01-.09.277 1.004 1.004 0 01-.226.22c-.594.448-1.352.73-2.125.847-.086.008-.168.015-.254.02-.207.007-.414.003-.61-.063-.195-.067-.379-.2-.465-.387-.097-.219-.058-.469-.039-.71.016-.24-.007-.513-.191-.669-.172-.144-.434-.133-.637-.039-.207.094-.367.258-.535.406-.168.153-.351.301-.57.348-.36.082-.738-.133-.938-.441-.203-.309-.254-.688-.254-1.059 0-.176.02-.371.11-.52a.456.456 0 01.113-.132c.14-.11.328-.125.508-.13a10.367 10.367 0 015.836 1.59c.168.11.351.247.367.442M57.629 108.99c.2.234.23.54-.031.918-.246.363-1.285.715-1.715.613-.426-.101-.918-1.36-1.652-.535-.168.188-.368 1.16-1.832.469-.391-.188-.782-.524-.809-.942a.587.587 0 010-.117c.027-.258.2-.484.414-.625.215-.144.469-.219.719-.277 1.215-.285 2.445-.43 3.683-.102.258.067.512.157.77.266.184.09.344.203.453.332"></path><path fill="#d08f5c" d="M51.59 109.39a.587.587 0 000 .117l-.043.004a3.214 3.214 0 01-1.305-1.652c-.117-.356-.175-.727-.23-1.094a26.25 26.25 0 007.8.246c.212.64.087 1.106-.183 1.973a1.406 1.406 0 00-.453-.332c-.23-.114-.496-.2-.77-.266-1.238-.328-2.468-.183-3.683.102-.25.058-.504.133-.719.277-.215.14-.387.367-.414.625"></path><path fill="#f9ccbd" d="M57.812 107.02a26.25 26.25 0 01-7.8-.246 24.819 24.819 0 01-2.196-.508l-.02-.02c.504-.394.95-.753 1.301-1.039.79-.648 1.598-1.312 2.137-2.18.68-1.1.863-2.429.937-3.718.024-.406.04-.82.059-1.23l.02.003a19.904 19.904 0 014.253-3.277c.614.793 1.274 1.555 1.93 2.309 2.281 2.617 4.563 5.238 6.844 7.86l-.043.034a25.919 25.919 0 01-7.422 2.012"></path><g clip-path="url(#a)"><path fill="#79453b" d="M75.258 110.96a.318.318 0 00-.21.121c-.134.16-.177.375-.231.578-.051.2-.121.414-.29.54-.21.163-.511.132-.777.09-.754-.126-1.504-.302-2.234-.528-.176-.055-.352-.114-.496-.227a.615.615 0 01-.211-.277.456.456 0 01-.028-.192c.02-.234.235-.406.43-.535a8.82 8.82 0 013.906-1.398c.578-.059 1.22-.047 1.676.312a1.342 1.342 0 01.434 1.453c-.07.208-.2.399-.383.524a.729.729 0 01-.633.094c-.2-.07-.348-.242-.512-.375a.881.881 0 00-.14-.094.4.4 0 00-.301-.086"></path></g><g clip-path="url(#b)"><path fill="#79453b" d="M95.586 78.562c.168-.016.34-.023.5.023.133.036.242.122.352.25.023.032.046.059.07.09a.76.76 0 01.086.168c.105.305.027.649-.13.93-.081.152-.187.289-.327.39a.698.698 0 01-.485.13c-.191-.028-.351-.149-.523-.235-.172-.082-.395-.125-.543-.004-.094.078-.133.207-.145.328-.011.125 0 .25-.02.371-.058.446-.491.77-.937.84s-.898-.058-1.324-.21c-.234-.087-.48-.188-.613-.4a.642.642 0 01-.094-.386.848.848 0 01.11-.387c.128-.238.34-.421.558-.582 1-.75 2.215-1.21 3.465-1.316"></path></g><g clip-path="url(#c)"><path fill="#d08f5c" d="M88.402 79.691l-3.426 3.754c-.793.867-1.59 1.738-2.547 2.414-.96.676-2.105 1.148-3.277 1.106l-.105-.028c.808-3.101 1.132-6.3.773-9.379a28.51 28.51 0 00-1.7-6.867 12.96 12.96 0 006.985-1.184c1.274-.605 2.445-1.421 3.77-1.902 1.328-.476 2.906-.562 4.058.246.817.57 1.297 1.496 1.688 2.41 1.203 2.844 1.789 5.239 1.68 8.325h-.215a1.346 1.346 0 00-.5-.024 6.754 6.754 0 00-3.465 1.317c-.219.16-.43.343-.559.582a.848.848 0 00-.11.386l-.105-.004a69.977 69.977 0 00-2.945-1.152"></path></g><path fill="#f9ccbd" d="M78.121 70.691a28.507 28.507 0 011.7 6.867c.359 3.078.034 6.277-.774 9.38-.824 3.16-2.156 6.214-3.781 8.925a34.709 34.709 0 00-2.915-6.242c-2.019-3.406-4.605-6.438-7.18-9.453l-1.98-2.32.04-.036a24.477 24.477 0 011.84-15.543c.714-1.504 1.87-3.105 3.534-3.156 1.278-.04 2.368.871 3.262 1.781a28.64 28.64 0 015.012 7.004c.465.91.879 1.84 1.242 2.793"></path><path fill="#d08f5c" d="M42.32 77.305c4.356-2.547 8.188-6.578 9.445-11.148l-.218-.05a7.55 7.55 0 00.57-.196c2.375-.906 4.164-2.887 5.7-4.914 3.327-4.38 6.987-10.7 9.14-16.355 2.066 7.969 6.484 15.777 9.922 23.258a28.744 28.744 0 00-5.012-7.004c-.895-.91-1.985-1.82-3.262-1.781-1.664.05-2.816 1.652-3.535 3.156a24.476 24.476 0 00-1.84 15.543l-.039.035 1.98 2.32c2.575 3.016 5.16 6.047 7.18 9.457a34.556 34.556 0 012.914 6.239 34.2 34.2 0 011.832 13.93 1.23 1.23 0 00-.304-.348c-.457-.36-1.098-.371-1.676-.312a8.82 8.82 0 00-3.906 1.398c-.196.129-.41.3-.43.535a.456.456 0 00.027.191l-.043.02c-1.828-2.102-13.648-15.684-14.262-16.477a19.786 19.786 0 00-4.25 3.277l-.023-.004c-.02.41-.035.825-.059 1.23-.074 1.29-.257 2.618-.937 3.72-.54.867-1.348 1.53-2.137 2.18-.351.285-.797.644-1.3 1.039-1.907 1.488-4.66 3.464-6.391 3.785l-.137-.004a.422.422 0 00.09-.278c-.016-.195-.2-.332-.367-.437a10.34 10.34 0 00-5.836-1.594c-.18.004-.367.02-.508.13a.456.456 0 00-.113.132c-.551-1.664.886-3.41 1.472-4.074a14.462 14.462 0 002.348-3.676l.027-.024c-1.964-1.902-3.312-4.433-3.992-7.093-.652-2.563-.722-5.239-.422-7.868.094-.816.223-1.628.38-2.43.156-.777.34-1.558.613-2.296.136-.367.296-.723.484-1.063.574-1.039 1.453-1.941 2.57-2.34 1.375-.488 2.887-.16 4.305.192"></path><path fill="#ffca08" d="M35.316 49.723l-.023.023c-.727-.214-1.274-.855-1.54-1.562-.18-.48-.25-.992-.265-1.504l.086-.004c1.867.067 3.672.82 4.96 2.098a6.407 6.407 0 011.356 1.976c.95 2.184.965 5.364.106 7.723-.11.3-.239.594-.375.867-.446.86-.985 1.668-1.63 2.375a8.325 8.325 0 01-1.8 1.5c-1.5.922-3.523 1.25-5.277 1.098-3.266-.285-6.157-2.805-7.102-5.937-.531-1.758-.469-3.653.07-5.407a10.101 10.101 0 011.907-3.515c.062-.074.128-.149.195-.223 1.047-1.172 2.406-2.121 3.95-2.437l.026-.012c.055.148.106.297.153.445.199.606.394 1.227.406 1.86-1.05.293-1.934 1.02-2.516 1.941a4.881 4.881 0 00-.629 1.535 6.3 6.3 0 00.051 2.856c.172.68.461 1.324.867 1.886.684.953 1.829 1.676 2.993 1.848.632.094 1.312.02 1.933-.203a3.84 3.84 0 001.215-.688c.117-.105.23-.214.34-.328.656-.691 1.137-1.601 1.45-2.488.405-1.156.448-2.422.179-3.617a4.577 4.577 0 00-1.086-2.106"></path><path fill="#b65745" d="M40.117 43.102c.063.734-.05 1.5-.234 2.215a14.275 14.275 0 01-1.348 3.457c-1.29-1.278-3.094-2.031-4.961-2.098l-.086.004a9.387 9.387 0 01.008-.742c.043-1.051.195-2.117.629-3.078.437-.957 1.183-1.809 2.164-2.203.976-.395 2.191-.262 2.957.46.539.508.812 1.247.871 1.985"></path><path fill="#f9ccbd" d="M32.09 34.836c2.586-.344 5.223-.21 7.816.113 1.454.18 2.91.422 4.266.98 1.352.56 2.602 1.454 3.352 2.712 1.156 1.933.968 4.36.656 6.59-.406 2.87-.969 5.765-2.309 8.335-1.34 2.57-3.082 4.13-5.875 4.907.864-2.364.844-5.54-.105-7.723a6.405 6.405 0 00-1.356-1.977 14.279 14.279 0 001.348-3.457c.184-.715.297-1.48.234-2.215-.058-.738-.332-1.476-.87-1.984-.766-.723-1.981-.855-2.958-.46-.98.394-1.726 1.245-2.164 2.202-.433.961-.586 2.028-.629 3.078a9.406 9.406 0 00-.008.743c.016.511.086 1.023.266 1.5.266.71.813 1.351 1.54 1.566l.023-.024c.539.582.914 1.329 1.086 2.106.269 1.195.226 2.46-.18 3.617-.313.887-.793 1.797-1.45 2.488-1.546.028-2.93-.296-4.253-.843-1.051-.438-2.063-1.016-3.094-1.672a6.315 6.315 0 01-.05-2.86 4.86 4.86 0 01.628-1.53c.586.214 1.11.35 1.668-.036.563-.387.832-1.094.848-1.777v-.13c-.012-.632-.207-1.253-.407-1.859a9.994 9.994 0 00-.152-.445c-.305-.867-.68-1.723-1.312-2.383-.743-.773-1.934-1.214-2.918-.793-.825.352-1.325 1.227-1.489 2.11-.261 1.426.442 2.742 1.516 3.715l.031.023a10.1 10.1 0 00-1.906 3.516l-.02-.004c-2.48-1.395-3.925-4.309-3.847-7.149.078-2.844 1.554-5.55 3.691-7.43 2.137-1.878 4.883-2.976 7.692-3.449.23-.039.46-.07.69-.101"></path><path fill="#ffbdbe" d="M87.953 29.555c.09.316.086.645-.063.95-.21.433-.675.698-1.144.804-.469.105-.957.082-1.437.09a10.605 10.605 0 00-4.848 1.27c-1.211.652-2.281 1.534-3.461 2.238-1.18.707-2.54 1.242-3.902 1.09-1.098-.122-2.227-.508-3.188-1.048a18.54 18.54 0 01-1.34-.816A21.88 21.88 0 0165.863 32c-1.238-1.136-2.222-2.629-2.43-4.297 1.298 1.305 3.247 1.786 5.083 1.68 1.836-.105 3.593-.727 5.32-1.363 1.727-.637 3.469-1.297 5.297-1.48 2.976-.298 6.656.952 8.82 3.015"></path><path fill="#fff" d="M52.137 31.555c.426.18.938.16 1.324-.09l.067.012a2.11 2.11 0 01-.63.394c-.741.286-1.613.043-2.238-.453-.62-.496-1.035-1.207-1.363-1.93-1.309-2.898-1.453-6.304-.387-9.296.168-.477.422-.918.743-1.309.32-.387.718-.71 1.222-.754.047-.004.094-.008.137-.004.348.078.672.219.977.403.148.101.304.214.472.34.371.3.703.664.996 1.042a9.751 9.751 0 011.977 5.067 9.629 9.629 0 01-.121 2.594c0-.782-1.027-1.563-1.809-1.559-.777.004-1.523.438-1.988 1.063s-.664 1.421-.649 2.199c.008.46.094.926.297 1.336.207.414.547.77.973.945"></path><path fill="#ffcb66" d="M78.473 14.156c.04-.035.074-.07.11-.105.656-.649 1.202-1.438 1.421-2.332a3.827 3.827 0 00-.672-3.22c-.27-.35-.601-.656-.816-1.038-.215-.387-.293-.895-.035-1.254.21-.297.898-.446 1.265-.414.368.03.707.195 1.032.367 3.148 1.691 5.312 4.504 5.992 8.008.219 1.132.144 2.68-.137 3.797-.305 1.218-.996 2.308-1.828 3.246a28.95 28.95 0 01-2.988 2.886 19.98 19.98 0 00-7.258-2.254c-4.188-.453-8.508.477-12.152 2.579l-.027-.051c-.844-.035-1.637-.477-2.211-1.094-.575-.621-.946-1.402-1.192-2.21-.75-2.47-.27-4.806 1.614-6.567.695-.653 1.535-1.11 2.437-1.403 1.05-.343 2.191-.468 3.297-.425 2.059.082 4.059.656 6.047 1.191 1.992.535 4.027.797 6.094.281l.007.012"></path><path fill="#7c4100" d="M46.434 10.895l-.023-.008a91.382 91.382 0 01-4.461 6.07c-.371.465-.817.965-1.41 1.004-.489.036-.954-.265-1.239-.664-.281-.402-.41-.886-.52-1.363-.245-1.129-.386-2.29-.277-3.437.008-.11.024-.223.04-.333.015-.14.038-.28.066-.417.176-.887.511-1.743 1.047-2.465.691-.946 1.691-1.637 2.793-2.04-2.082.337-4.164.676-6.243 1.016-.562.09-1.222.149-1.613-.261-.535-.563-.129-1.481.297-2.133.86-1.317 1.746-2.64 2.91-3.7C38.965 1.107 40.45.322 42.024.29c1.602-.032 3.137.722 4.355 1.761 1.22 1.04 2.16 2.356 3.094 3.656-.336-.793-.68-1.605-.722-2.464-.04-.86.277-1.786 1.003-2.246.915-.579 2.18-.223 2.977.507 1.094.996 1.512 2.653 1.066 4.055a3.128 3.128 0 00-.16.414c.063-.133.118-.273.16-.414.395-.84 1.149-1.496 1.997-1.894.98-.465 2.078-.618 3.16-.68 1.543-.09 3.336.226 4.414 1.332 1.957 2.004 2.25 4.715 1.305 5.933-.57.735-2.172.508-4.145.09-2.172-.46-4.785-1.156-6.953-1.07l-.125.035c.156.48.207 1.008.156 1.512-.097.996-.535 1.926-1.054 2.781a14.782 14.782 0 01-2.782 3.352c-.328.293-.675.578-1.082.754-.402.175-.875.238-1.289.082-.527-.2-.87-.711-1.101-1.23-.59-1.329-.637-2.86-.309-4.278.11-.473.262-.934.445-1.383"></path><path fill="#d08f5c" d="M62.406 24.422c3.644-2.102 7.965-3.031 12.152-2.578a19.98 19.98 0 017.258 2.254 19.9 19.9 0 015.277 4.07c.363.395.723.883.86 1.387-2.165-2.063-5.844-3.313-8.82-3.016-1.829.184-3.575.844-5.298 1.48-1.726.637-3.484 1.259-5.32 1.364-1.836.105-3.79-.375-5.082-1.68.207 1.668 1.191 3.16 2.43 4.297a21.88 21.88 0 002.707 2.133l-.055.09c.809 2.394.04 6.223-1.559 10.418-2.152 5.656-5.812 11.977-9.14 16.355-1.535 2.027-3.324 4.008-5.7 4.914a7.55 7.55 0 01-.57.195c-2.27.676-4.78.336-7.004-.527-2.406-.934-4.394-2.332-6.507-3.824l-.043-.04a11.084 11.084 0 001.629-2.374c.136-.274.265-.567.375-.868 2.793-.777 4.535-2.335 5.875-4.906 1.34-2.566 1.902-5.465 2.308-8.336.313-2.23.5-4.656-.656-6.59-.75-1.257-2-2.156-3.352-2.71-1.355-.559-2.812-.801-4.265-.98-2.594-.325-5.23-.458-7.817-.114 1.664-.656 3.067-2.082 3.864-3.754.433-.906.691-1.883.714-2.852.036-1.289-.277-2.543-.558-3.804-.09-.39-.172-.782-.242-1.176-.016-.078-.028-.156-.04-.234-.581-3.579.563-7.887 2.637-10.863l.078.011c-.015.11-.03.223-.039.332-.11 1.149.032 2.309.278 3.438.109.476.238.96.52 1.363.284.399.75.7 1.237.664.594-.039 1.04-.539 1.41-1.004a90.375 90.375 0 004.462-6.07l.023.008c-.184.449-.336.91-.445 1.383-.328 1.418-.282 2.949.308 4.277.23.52.575 1.031 1.102 1.23.414.157.887.098 1.289-.082.406-.175.754-.46 1.082-.754a14.781 14.781 0 002.781-3.351c.52-.856.957-1.785 1.055-2.781.05-.504 0-1.032-.156-1.512l.125-.035c2.168-.086 4.78.61 6.953 1.07l-.004.012a5.259 5.259 0 012.476 2.664l.028.082c-.903.293-1.742.75-2.438 1.402-1.882 1.762-2.363 4.098-1.613 6.567.246.804.617 1.59 1.191 2.21.575.618 1.368 1.06 2.211 1.094zm-11.395-6.297c-.043-.004-.09 0-.137.004-.504.043-.902.367-1.222.754-.32.39-.575.832-.743 1.309-1.066 2.996-.921 6.398.387 9.296.328.723.742 1.434 1.363 1.93.625.496 1.497.738 2.239.453a2.11 2.11 0 00.629-.394c.355-.317.629-.742.847-1.172a9.732 9.732 0 001.059-5.332 9.75 9.75 0 00-1.977-5.063 6.299 6.299 0 00-.996-1.043 4.37 4.37 0 00-.472-.34c-.352-.234-.66-.386-.977-.402zm-7.324 8.566a7.909 7.909 0 00-1.637-5.984c-.348-.437-.766-.855-1.305-1.012-.511-.152-1.148.008-1.41.465-.004.004-.008.004-.012.008-.3.32-.492.727-.648 1.137a8.667 8.667 0 00.5 7.11c.328.6.75 1.179 1.348 1.507.027.016.05.027.078.039.59.293 1.355.293 1.848-.137.226-.199.375-.465.507-.734a8.05 8.05 0 00.73-2.398"></path><path fill="#d08f5c" d="M20.875 27.137c-.047.148-.05.305-.027.457l-.051.008c-.129-.785.117-1.852.48-2.524.391-.722.973-1.32 1.59-1.867a17.057 17.057 0 014.192-2.742l.003-.016a64.265 64.265 0 008.633 2.829l.172-.032c.07.395.152.785.242 1.176l-.086.012c-1.011.594-2.238.719-3.41.652s-2.328-.308-3.5-.398a13.287 13.287 0 00-7.367 1.601c-.363.2-.742.45-.871.844"></path><path fill="#ffbdbe" d="M36.109 24.426c.281 1.262.594 2.516.559 3.805-.024.968-.282 1.945-.715 2.851-1.649 1.043-3.852 2.125-5.79 2.121-1.738 0-3.367-.808-4.84-1.73a29.388 29.388 0 01-3.612-2.664c-.25-.215-.504-.442-.676-.723-.09-.148-.16-.32-.188-.492a1.005 1.005 0 01.028-.457c.129-.395.507-.645.87-.844a13.287 13.287 0 017.368-1.601c1.172.09 2.328.332 3.5.398s2.398-.059 3.41-.652l.086-.012"></path><path fill="#a25436" d="M43.629 26.684l.059.008a8.049 8.049 0 01-.73 2.398c-.134.27-.282.535-.509.735-.492.43-1.257.43-1.847.136l.027-.054a1.951 1.951 0 01-.7-.848 3.26 3.26 0 01-.261-1.07c-.066-.68.016-1.383.332-1.985.32-.597.902-1.078 1.578-1.168a1.825 1.825 0 011.457.45c.39.351.613.874.594 1.398"></path><path fill="#fff" d="M43.715 24.77c.07.637.059 1.285-.027 1.922l-.059-.008a1.808 1.808 0 00-.594-1.398 1.825 1.825 0 00-1.457-.45c-.675.09-1.257.57-1.578 1.168-.316.602-.398 1.31-.332 1.985.031.367.11.734.262 1.07.152.34.387.645.7.848l-.028.055a.728.728 0 01-.078-.04c-.598-.328-1.02-.91-1.348-1.507a8.667 8.667 0 01-.5-7.11c.156-.41.348-.816.648-1.136.004-.004.008-.004.012-.008.262-.457.899-.617 1.41-.465.54.156.957.574 1.305 1.016a7.911 7.911 0 011.664 4.058"></path><path fill="#ffcb66" d="M19.824 7.11l-1.113-2.446c-.211-.46-.422-1.008-.188-1.457.184-.348.59-.523.98-.539.395-.016.774.106 1.145.227 1.29.418 2.59.855 3.715 1.601 1.129.75 2.078 1.863 2.336 3.192.113.574.09 1.164.074 1.754h.031a28.15 28.15 0 0011.703 2.285l.102.02c-.027.136-.05.277-.067.417l-.078-.012c-2.074 2.973-3.218 7.286-2.636 10.863.011.079.023.157.039.235l-.172.031a64.262 64.262 0 01-8.633-2.828 64.767 64.767 0 01-4.215-1.906c-1.047-.52-2.09-1.074-2.984-1.824-.899-.75-1.649-1.72-1.965-2.844-.32-1.145-.172-2.38.207-3.504.379-1.129.977-2.168 1.57-3.2l.149-.066"></path><path fill="#b65745" d="M29.961 46.781l-.027.012c-1.543.316-2.903 1.265-3.95 2.437a9.956 9.956 0 00-.195.223l-.031-.024c-1.074-.972-1.777-2.289-1.516-3.714.164-.883.664-1.758 1.489-2.11.984-.426 2.175.02 2.918.793.632.66 1.007 1.516 1.312 2.383M30.52 49.219c-.016.68-.285 1.387-.848 1.773-.558.387-1.082.25-1.668.036.582-.922 1.465-1.649 2.516-1.942v.133"></path><path fill="#a25436" d="M55.312 27.57a9.732 9.732 0 01-.938 2.734c-.218.43-.492.856-.847 1.172l-.067-.011c-.386.25-.898.27-1.324.09-.426-.176-.765-.532-.972-.946-.204-.41-.29-.875-.297-1.336-.016-.777.183-1.574.648-2.199s1.211-1.059 1.988-1.062c.782-.004 1.809.777 1.809 1.558"></path><path fill="#fff" d="M41.625 26.598a.606.606 0 01-1.21 0 .605.605 0 011.21 0M53.32 27.469a.671.671 0 01-1.34 0 .671.671 0 111.34 0"></path><path fill="#f0ae7c" d="M81.816 24.094a19.996 19.996 0 015.277 4.074c.364.395.723.883.86 1.387-1.395-1.328-3.414-2.32-5.473-2.777-3.969-2.899-9.172-4.063-13.996-3.102-2.523.504-4.957 1.559-7.527 1.684v-.016c.468-.328.953-.637 1.449-.922 3.644-2.102 7.965-3.031 12.152-2.578a20.05 20.05 0 017.258 2.25"></path><path fill="#ffe2a7" d="M86.77 14.168c.219 1.133.145 2.68-.137 3.797-.297 1.187-.96 2.25-1.765 3.172.297-1.457.394-2.95.238-4.426-.242-2.273-1.098-4.504-2.578-6.25a9.552 9.552 0 00-3.844-2.746 2.592 2.592 0 01-.168-.254c-.215-.387-.293-.895-.035-1.254.21-.297.898-.445 1.266-.414.367.031.707.195 1.03.367 3.15 1.692 5.313 4.504 5.993 8.008M78.461 14.145l.012.012c-.63.597-1.356 1.094-2.074 1.582l.011.031c-.625.254-1.324.336-2.004.312-.925-.039-1.832-.261-2.734-.457-2.606-.562-5.32-.878-7.922-.316-1.906.41-3.754 1.36-5.059 2.777.176-1.332.797-2.554 1.899-3.586.695-.652 1.535-1.109 2.437-1.402 1.051-.344 2.192-.469 3.297-.426 2.063.082 4.059.657 6.047 1.192 1.992.535 4.027.797 6.09.281"></path><path fill="#a16532" d="M38.703 15.543c-.2-1.004-.297-2.027-.2-3.047.009-.11.024-.223.04-.332.015-.14.039-.281.066-.418.176-.887.512-1.742 1.047-2.465.692-.945 1.692-1.636 2.793-2.039.027-.012.059-.023.09-.035 1.133-.394 2.36-.488 3.555-.363-2.32.652-4.207 2.355-5.364 4.469a9.182 9.182 0 00-.855 6.496 1.72 1.72 0 01-.574-.512c-.282-.402-.41-.887-.52-1.363-.027-.13-.055-.258-.078-.391"></path><path fill="#a16532" d="M63.367 4.316c1.77 1.817 2.18 4.211 1.54 5.551a5.522 5.522 0 00-1.782-3.433c-1.344-1.2-3.238-1.715-5.027-1.504-1.79.21-3.465 1.113-4.739 2.386-.246-.605-.363-1.265-.695-1.832-.328-.562-.965-1.03-1.602-.882-.59.14-.957.765-.996 1.37-.039.602.051.844.266 1.41-2.14-1.616-3.629-2.921-5.875-3.976-.902-.425-1.883-.789-2.875-.687-1.121.113-2.098.8-2.898 1.59a11.507 11.507 0 00-2.625 3.968c-.524.079-1.106.094-1.465-.28-.535-.563-.13-1.481.297-2.134.859-1.316 1.746-2.64 2.91-3.699C38.965 1.106 40.449.32 42.024.29c1.601-.031 3.136.723 4.355 1.762 1.219 1.039 2.16 2.355 3.094 3.656-.336-.793-.68-1.605-.723-2.465-.039-.86.277-1.785 1.004-2.246.914-.578 2.18-.223 2.977.508 1.093.996 1.511 2.652 1.066 4.055a3.128 3.128 0 00-.16.414c.062-.133.117-.274.16-.414.395-.84 1.148-1.496 1.996-1.895.98-.465 2.078-.617 3.16-.68 1.543-.09 3.336.227 4.414 1.332"></path><path fill="#ffe2a7" d="M26.805 9.441a28.15 28.15 0 0011.703 2.286l.102.02c-.028.136-.051.276-.067.417l-.078-.012a14.826 14.826 0 00-1.34 2.387 102.117 102.117 0 01-4.074-.726c-2.023-.403-4.07-.883-5.875-1.883-.289-.52-.39-1.156-.406-1.762-.004-.242 0-.484.004-.727h.03"></path><path fill="#ffe2a7" d="M27.176 11.93c.11.191.238.367.402.52a3.96 3.96 0 01-2.355-1.762c-.528-.863-.805-1.86-1.285-2.746-1.043-1.918-3.118-3.211-5.282-3.399-.191-.437-.347-.925-.132-1.336.183-.347.59-.523.98-.539.395-.015.774.106 1.145.227 1.289.418 2.59.855 3.714 1.602 1.13.75 2.078 1.863 2.336 3.19.114.575.09 1.165.075 1.755-.004.242-.012.484-.004.726.015.606.117 1.243.406 1.762"></path><path fill="#f0ae7c" d="M20.875 27.137c-.047.148-.05.305-.027.457l-.051.008c-.129-.785.117-1.852.48-2.524.391-.722.973-1.32 1.59-1.867a17.057 17.057 0 014.192-2.742l.003-.016c.52.211 1.043.414 1.567.614-1 .687-2 1.379-3 2.066-.606.418-1.219.84-1.738 1.367a4.528 4.528 0 00-.832 1.164c-.45.184-.887.395-1.313.63-.363.199-.742.449-.871.843M35.953 31.082c.434-.906.691-1.883.715-2.852.035-1.289-.277-2.543-.559-3.804-.09-.39-.172-.782-.242-1.176-.016-.078-.027-.156-.043-.234-.437-2.704.113-5.829 1.3-8.477.384-.856.837-1.66 1.34-2.387l.079.012c-.016.11-.031.223-.04.332-.097 1.02 0 2.043.2 3.047-1.11 1.808-1.25 4.086-1.035 6.21.226 2.25.804 4.466.836 6.727s-1.793 4.61-3.524 6.067c0 0-1.535.11-2.89.289 1.664-.656 3.066-2.082 3.863-3.754"></path><path fill="#ffddd0" d="M21.527 45.328c-.469 1.73-.5 3.574-.117 5.328a8.397 8.397 0 01-1.395-4.84c.078-2.844 1.555-5.55 3.692-7.43 2.136-1.878 4.883-2.976 7.691-3.449.23-.035.461-.07.692-.101 1.355-.18 2.722-.23 4.093-.192 1.243.04 2.489.149 3.723.305 1.453.18 2.91.422 4.266.98 1.351.56 2.601 1.458 3.351 2.711.942 1.575.992 3.473.809 5.329l-.227-.024c.203-2.426-1.523-4.71-3.683-5.851-2.18-1.149-4.723-1.36-7.184-1.426-3.637-.102-7.45.11-10.582 1.949a11.322 11.322 0 00-5.129 6.71"></path><path fill="#f0ae7c" d="M34.445 82.344a13.77 13.77 0 01.516-1.828c.136-.367.297-.723.484-1.063.574-1.039 1.453-1.941 2.57-2.34 1.375-.488 2.887-.16 4.305.192 4.356-2.547 8.188-6.578 9.445-11.148l-.297-.031.079-.02a8.275 8.275 0 001.7-.727c-1.568 5.965-5.837 11.185-11.411 13.86-1.371.656-2.801-1.309-4.469.437-1.305 1.367-2.262 3.922-2.871 5.91-.309 1.004-.52 2.262-.68 3.524a24.638 24.638 0 01.153-3.867c.093-.817.222-1.63.378-2.43.032-.156.067-.313.098-.469"></path><path fill="#f0ae7c" d="M18.926 80.793c-.191.066-.36.176-.504.313l-.039-.063a15.902 15.902 0 015.914-5.293c.75-.383 1.54-.71 2.367-.848.832-.132 1.715-.062 2.465.317.785.394 1.375 1.094 1.871 1.816.496.727.926 1.504 1.508 2.16.582.66 1.512 1.211 2.39 1.293l.063.028a13.77 13.77 0 00-.516 1.828 6.963 6.963 0 01-4.07-2.817c-.691-1.015-1.203-2.297-2.34-2.754-.746-.304-1.597-.164-2.363.075-2.227.703-4.133 2.246-5.445 4.176-.383-.25-.867-.372-1.301-.231"></path><path fill="#a16532" d="M20.227 81.023c-.191.281-.371.574-.535.871-1.262 2.266-1.77 4.906-1.684 7.5-.02.676.035 1.356.16 2.023-.289 1.778-.293 3.196-.23 5.09-2.086-4.465-2.156-9.828-.184-14.344.168-.383.375-.781.668-1.058.145-.137.313-.246.504-.313.434-.14.918-.02 1.301.23"></path><path fill="#f0ae7c" d="M34.535 107.98c-.55-1.664.887-3.41 1.473-4.074a14.462 14.462 0 002.347-3.676l.028-.023c.336.324.687.632 1.062.918-.652 1.964-1.523 2.628-2.043 3.343-.707.97-1.254 2.082-1.476 3.254a10.12 10.12 0 00-.77-.004c-.18.004-.367.02-.508.13a.456.456 0 00-.113.132"></path><path fill="#945348" d="M35.934 109.86a.958.958 0 01-.316.14c-.36.083-.739-.132-.938-.44-.203-.31-.254-.688-.254-1.06 0-.175.02-.37.11-.519a.456.456 0 01.113-.133c.14-.11.328-.125.508-.129.254-.007.511-.007.77.004a5.297 5.297 0 00.008 2.137"></path><g clip-path="url(#d)"><path fill="#945348" d="M96.508 78.926a.76.76 0 01.086.168c.105.305.027.648-.129.93-.082.152-.187.289-.328.39a.732.732 0 01-.258.117c-.05-.34-.14-.707-.27-1.16-.07-.254-.14-.515-.21-.789.062-.008.125-.015.187-.02.168-.015.34-.023.5.024.133.035.242.121.352.25l.07.09"></path></g><g clip-path="url(#e)"><path fill="#f0ae7c" d="M96.301 78.586h-.215a1.346 1.346 0 00-.5-.023 2.644 2.644 0 00-.183.02c-.54-2.145-.993-4.872-1.82-6.75-.403-.911-1.032-1.763-1.927-2.208-1.32-.66-2.933-.297-4.253.367-1.317.664-2.875 1.594-4.309 1.942-1.742.422-3.176.586-4.367.496a29.46 29.46 0 00-.606-1.739 12.96 12.96 0 006.985-1.183c1.273-.606 2.445-1.422 3.77-1.902 1.327-.477 2.905-.563 4.058.246.816.57 1.297 1.496 1.687 2.41 1.203 2.844 1.79 5.238 1.68 8.324"></path></g><path fill="#f0ae7c" d="M75.266 95.863a34.266 34.266 0 011.832 13.93 1.23 1.23 0 00-.305-.348 1.467 1.467 0 00-.355-.203c-.766-11.355-3.867-16.71-9.29-23.895-3.034-4.02-6.773-7.73-8.355-12.492l.102-.039c1.433 1.68 5.617 6.578 6.277 7.352 2.574 3.015 5.16 6.047 7.18 9.457a34.556 34.556 0 012.914 6.238"></path><path fill="#945348" d="M77.098 109.79c.195.328.254.742.129 1.105-.07.208-.2.399-.383.524a.779.779 0 01-.289.117 79.07 79.07 0 00-.117-2.297c.125.051.246.117.355.203.125.098.227.215.305.348"></path><path fill="#372d28" d="M53.305 45.043c.371-.16.719-.375 1.063-.59.34-.207.667-.43 1-.648.667-.45 1.324-.907 1.984-1.364.527-.37 1.113-.785 1.781-.812.629-.024 1.234.273 1.695.687.293.262.52.575.774.875.125.149.238.301.367.45.133.148.273.28.387.449.07.11.23.015.172-.102-.086-.164-.133-.336-.2-.508a4.01 4.01 0 00-.257-.539 4.21 4.21 0 00-.68-.875c-.52-.515-1.184-.906-1.918-.988-.742-.086-1.43.227-2.035.621-.692.45-1.36.934-2.024 1.418-.379.278-.77.547-1.14.836-.375.297-.766.582-1.094.934-.082.09.023.199.125.156"></path><path fill="#372d28" d="M39.18 60.387c.52.215 1.043.418 1.582.59.543.172 1.094.336 1.64.488 1.083.3 2.172.594 3.278.793 1.086.195 2.234.238 3.234-.297.918-.492 1.563-1.351 2.172-2.168a39.537 39.537 0 003.41-5.39 40.747 40.747 0 002.532-5.883c.34-1.004.64-2.024.902-3.051.266-1.035.523-2.094.629-3.156.023-.258.015-.52.008-.778-.004-.12-.172-.14-.211-.027-.168.496-.313.992-.41 1.504a39.634 39.634 0 01-.325 1.535 40.214 40.214 0 01-6.406 14.184c-.582.812-1.168 1.676-1.93 2.332-.37.32-.8.562-1.277.687-.512.133-1.043.137-1.566.086-.532-.05-1.055-.168-1.575-.285-.539-.121-1.07-.254-1.601-.39-1.086-.286-2.156-.622-3.23-.938-.25-.074-.5-.152-.747-.23-.258-.083-.347.3-.11.394M38.117 32.035c.172.008.336.016.504.004.187-.012 1.266-.074 1.621-.098.707-.039 1.422-.035 2.125.043a8.405 8.405 0 011.781.375c.543.18 1.043.43 1.535.719.266.152.52.328.75.523.125.106.246.22.368.329.058.054.113.117.175.168.059.05.13.09.192.136.074.055.195-.039.16-.125a1.442 1.442 0 00-.203-.383 3.538 3.538 0 00-.293-.347 6.351 6.351 0 00-.688-.606c-.476-.363-1.02-.625-1.578-.836-1.28-.476-2.664-.582-4.02-.504-.41.024-.823.051-1.226.125-.2.036-.398.075-.597.114-.098.02-.2.035-.297.062-.114.028-.223.074-.332.113-.102.032-.086.188.023.188M40.535 19.539c-.477-.078-.914.086-1.277.387-.383.312-.602.758-.782 1.21a8.916 8.916 0 00-.234 5.648c.262.907.66 1.817 1.25 2.564.566.714 1.422 1.207 2.356 1.03 1.003-.187 1.418-1.238 1.718-2.097a8.191 8.191 0 00-.191-5.828 8.132 8.132 0 00-.691-1.3c-.258-.395-.543-.79-.895-1.106-.34-.313-.742-.559-1.21-.606-.372-.039-.817.05-1.095.317a1.065 1.065 0 00-.285.441c-.039.113.13.172.192.078.18-.27.523-.422.843-.433.368-.016.715.148.996.375.325.253.59.585.829.917a7.662 7.662 0 011.223 6.324 7.65 7.65 0 01-.442 1.294c-.16.355-.34.761-.684.976-.66.41-1.492.102-2.004-.394-.593-.57-.98-1.38-1.257-2.145a8.57 8.57 0 01-.5-2.539 8.406 8.406 0 01.285-2.555c.113-.414.246-.832.445-1.214.187-.36.434-.711.797-.91.18-.098.37-.16.578-.165.148-.004.195-.246.035-.27M52.527 18.797c-.402-.375-.86-.805-1.43-.887-.57-.082-1.101.254-1.476.657-.864.93-1.211 2.218-1.438 3.437a12.876 12.876 0 00.805 7.352c.457 1.074 1.101 2.18 2.223 2.652.535.226 1.156.3 1.71.101.54-.195.958-.597 1.282-1.062.351-.496.61-1.063.828-1.629a9.963 9.963 0 00.465-5.602 9.983 9.983 0 00-1.403-3.406 8.115 8.115 0 00-1.097-1.375c-.418-.41-.91-.71-1.457-.91a2.414 2.414 0 00-.782-.152c-.117-.004-.144.18-.027.21.258.063.52.153.758.266.226.114.433.262.629.418.418.332.797.723 1.125 1.145.699.89 1.23 1.922 1.566 3.004.7 2.246.535 4.73-.476 6.863-.43.898-1.063 1.922-2.192 1.879-1.125-.043-1.91-.969-2.398-1.887-1.078-2.039-1.469-4.449-1.25-6.734.055-.57.152-1.137.289-1.695.133-.555.289-1.13.547-1.637.238-.473.574-.973 1.035-1.262.195-.121.426-.2.66-.191.223.004.43.082.629.18.262.12.508.273.758.417.094.055.2-.074.117-.152"></path><path fill="#372d28" d="M55.41 27.594c.113-.313-.078-.684-.27-.93a2.164 2.164 0 00-.87-.695c-.348-.156-.7-.207-1.075-.156-.406.054-.8.21-1.14.441-.711.488-1.165 1.258-1.332 2.098-.168.855-.11 1.848.378 2.594.254.386.614.699 1.055.855.469.164.992.117 1.395-.183.183-.133.027-.415-.18-.305-.633.332-1.387.062-1.805-.477-.457-.593-.539-1.418-.449-2.14.09-.715.402-1.41.953-1.89.465-.407 1.164-.692 1.777-.517.317.09.63.274.872.5.12.114.222.239.308.38.086.132.13.28.188.425.035.094.16.098.195 0M43.727 26.711c.18-.629-.219-1.336-.719-1.703a2.016 2.016 0 00-1.86-.27 2.498 2.498 0 00-1.347 1.227c-.32.637-.398 1.367-.324 2.07.043.407.121.836.32 1.196.184.328.469.562.785.75.102.058.176-.082.09-.149-.23-.176-.379-.441-.496-.7a3.524 3.524 0 01-.285-.91c-.094-.593-.066-1.226.137-1.792.183-.512.543-.961 1.023-1.22a1.64 1.64 0 011.512-.015c.277.145.512.364.668.633.16.277.23.578.304.883.024.098.168.094.192 0M27.941 51.137c.293.164.629.281.965.293.347.012.687-.129.96-.336.512-.395.77-1.016.84-1.644.083-.743-.132-1.489-.363-2.184-.218-.668-.453-1.34-.789-1.957-.324-.598-.754-1.14-1.316-1.523-.512-.352-1.137-.57-1.758-.555-1.348.043-2.234 1.23-2.45 2.469a3.709 3.709 0 00.278 2.132c.29.664.754 1.34 1.375 1.73.16.102.285-.112.184-.241-.367-.473-.781-.895-1.063-1.434a3.335 3.335 0 01-.402-1.64c.02-1.04.59-2.262 1.68-2.54 1.129-.289 2.238.473 2.843 1.368.356.527.606 1.117.817 1.71.226.63.465 1.282.543 1.95.074.62-.008 1.308-.418 1.808-.203.25-.488.45-.813.493-.347.046-.68-.063-1.015-.13-.137-.027-.23.157-.098.231M35.332 49.609c-.586-.242-1.023-.723-1.293-1.285-.328-.676-.363-1.457-.344-2.195.043-1.434.282-2.954 1.18-4.118.773-.996 2.027-1.62 3.293-1.261a2.275 2.275 0 011.414 1.171c.332.645.379 1.387.32 2.098-.074.836-.312 1.66-.578 2.453a19.762 19.762 0 01-.918 2.227c-.082.168.157.316.254.148.39-.668.75-1.351 1.008-2.082.27-.757.5-1.55.61-2.347.109-.782.113-1.606-.173-2.352-.261-.676-.734-1.258-1.398-1.562a3.16 3.16 0 00-2.031-.188c-.688.156-1.309.55-1.793 1.05-1.11 1.145-1.488 2.743-1.582 4.29-.05.82-.055 1.68.21 2.469.216.64.65 1.28 1.266 1.597.149.075.317.125.477.157.184.039.242-.203.078-.27"></path><path fill="#372d28" d="M30.496 48.961c-.414.074-.84.21-1.195.441-.356.23-.684.512-.965.829a5.052 5.052 0 00-1.164 2.253c-.406 1.829-.008 3.946 1.273 5.356a4.914 4.914 0 002.383 1.445c.922.235 1.894.13 2.766-.246.89-.387 1.57-1.101 2.078-1.918.527-.851.914-1.824 1.05-2.82.254-1.824-.175-4.098-1.816-5.188a2.384 2.384 0 00-.574-.261c-.121-.04-.168.125-.082.187.652.484 1.23 1.098 1.59 1.824.402.82.539 1.766.511 2.668-.03.965-.297 1.895-.722 2.754-.391.785-.922 1.563-1.664 2.051a3.93 3.93 0 01-2.442.625c-.844-.066-1.672-.457-2.32-1-1.363-1.14-1.899-3.031-1.715-4.758.086-.804.356-1.57.816-2.238.442-.64 1.051-1.145 1.739-1.512.168-.094.34-.18.52-.246.152-.058.097-.277-.067-.246"></path><path fill="#372d28" d="M29.895 46.648c-1.816.309-3.363 1.512-4.473 2.938a10.26 10.26 0 00-2.066 4.796c-.254 1.72-.063 3.489.656 5.079a8.98 8.98 0 003.145 3.703 8.246 8.246 0 002.199 1.047 8.38 8.38 0 002.527.34 9.614 9.614 0 002.766-.426 7.485 7.485 0 002.43-1.282 9.228 9.228 0 001.859-1.98c.5-.7.933-1.461 1.234-2.27.606-1.613.774-3.414.602-5.12-.164-1.65-.68-3.262-1.793-4.524-1.078-1.219-2.613-2.024-4.207-2.32a8.207 8.207 0 00-1.2-.122c-.218-.007-.218.329 0 .336 1.548.059 3.122.63 4.32 1.618a6.556 6.556 0 011.497 1.75c.387.671.633 1.414.793 2.172a11.55 11.55 0 01-.07 4.96c-.383 1.614-1.223 3.114-2.36 4.325-.593.629-1.277 1.183-2.047 1.586-.789.414-1.664.66-2.543.789-1.636.242-3.32.07-4.816-.657a8.505 8.505 0 01-3.441-3.101c-.872-1.383-1.29-2.992-1.258-4.621a9.788 9.788 0 011.383-4.793c.878-1.477 2.168-2.786 3.746-3.508a6.855 6.855 0 011.199-.43c.187-.047.105-.316-.082-.285"></path><path fill="#372d28" d="M23.953 52.812c-1.629-.973-2.813-2.621-3.36-4.422-.581-1.926-.398-3.969.364-5.816.789-1.922 2.176-3.575 3.86-4.778 1.761-1.257 3.812-2.062 5.921-2.5 2.422-.5 4.918-.511 7.371-.304 1.22.101 2.446.238 3.649.476 1.113.223 2.218.551 3.214 1.106.875.492 1.676 1.152 2.227 1.996.582.887.863 1.926.95 2.973.085 1.09-.009 2.187-.15 3.27a44.323 44.323 0 01-.57 3.421c-.456 2.18-1.148 4.348-2.351 6.238a9.076 9.076 0 01-1.676 1.989 8.287 8.287 0 01-2.18 1.355c-.418.18-.832.375-1.27.496-.202.059-.116.375.087.317.48-.133.96-.247 1.422-.442.41-.176.808-.379 1.187-.617a8.405 8.405 0 002-1.734c1.41-1.668 2.27-3.758 2.844-5.844.32-1.164.55-2.348.738-3.54.184-1.14.356-2.288.407-3.445.05-1.105-.02-2.238-.371-3.297a6.007 6.007 0 00-1.77-2.644c-1.8-1.559-4.187-2.05-6.484-2.34-2.567-.324-5.176-.469-7.75-.148-2.266.285-4.5.926-6.489 2.062-1.894 1.074-3.523 2.598-4.617 4.489-1.047 1.82-1.578 3.953-1.293 6.046.266 1.954 1.2 3.86 2.723 5.137.367.309.77.578 1.191.8.2.106.371-.183.176-.3M47.777 8.293a8.135 8.135 0 00-1.336 2.04 9.347 9.347 0 00-.75 2.339c-.14.82-.16 1.652-.027 2.473.117.75.36 1.562.824 2.175.223.293.492.532.836.664.379.149.809.13 1.191.012.782-.242 1.407-.867 1.97-1.426.577-.574 1.105-1.199 1.585-1.859.477-.66.922-1.363 1.25-2.11.586-1.32.852-3.105-.191-4.285a2.188 2.188 0 00-.399-.336c-.11-.078-.215.086-.137.18.415.492.688 1.129.786 1.762.105.707-.032 1.426-.274 2.09-.262.714-.656 1.382-1.078 2.02a14.683 14.683 0 01-2.207 2.581 5.955 5.955 0 01-.879.715c-.597.371-1.363.5-1.906-.031-.496-.48-.738-1.227-.887-1.883a6.842 6.842 0 01-.094-2.273c.098-.84.352-1.672.692-2.446.351-.785.777-1.527 1.176-2.293.043-.086-.07-.187-.145-.11"></path><path fill="#372d28" d="M46.121 6.746c-1.734-.336-3.594.004-5.078.965A5.905 5.905 0 0039.3 9.434c-.473.722-.77 1.558-.918 2.406-.164.93-.157 1.875-.035 2.808.062.473.144.942.25 1.403.097.422.218.847.441 1.219.418.691 1.234 1.12 2.012.765.355-.164.644-.453.89-.746.293-.348.57-.71.848-1.066.59-.758 1.168-1.52 1.734-2.293.563-.77 1.145-1.54 1.641-2.352.129-.207.25-.41.355-.629.059-.12-.093-.262-.195-.152-.605.672-1.086 1.449-1.61 2.18a98.912 98.912 0 01-2.445 3.25c-.257.328-.507.667-.793.972-.234.246-.511.485-.855.547s-.688-.094-.938-.324c-.28-.266-.445-.617-.558-.98a9.84 9.84 0 01-.277-1.255c-.157-.894-.223-1.808-.133-2.71a6.44 6.44 0 01.652-2.329c.352-.699.852-1.3 1.465-1.785 1.297-1.027 2.984-1.406 4.613-1.414.215 0 .434-.008.649-.008.109.004.14-.175.027-.195"></path><path fill="#372d28" d="M42.766 7.094c-.262.012-.527.008-.785.047-.266.039-.535.074-.805.11a58.65 58.65 0 00-1.629.25c-1.062.17-2.125.343-3.191.519-.399.062-.836.156-1.238.043a.746.746 0 01-.567-.766c.004-.39.188-.77.383-1.102.238-.406.512-.797.777-1.187 1.059-1.551 2.285-3.055 3.996-3.906.805-.403 1.692-.63 2.59-.598.906.031 1.785.324 2.574.754 1.676.922 2.891 2.445 3.996 3.969l.422.586c.16.226.473.035.368-.215-.372-.871-.774-1.778-.696-2.75.063-.742.446-1.535 1.184-1.813.746-.281 1.598-.015 2.219.442.609.453 1.03 1.14 1.234 1.863.238.824.203 1.734-.152 2.52l.41.175c.312-1.004 1.101-1.765 2.039-2.195 1.086-.5 2.363-.652 3.547-.652 1.023 0 2.086.175 2.984.683.91.516 1.578 1.438 2.02 2.367.375.801.59 1.707.508 2.594a2.666 2.666 0 01-.274.996c-.129.246-.242.395-.457.508-.176.09-.453.145-.676.16a5.4 5.4 0 01-.972-.027c-.84-.082-1.668-.266-2.489-.445-.968-.211-1.933-.434-2.906-.618-.965-.18-1.941-.336-2.926-.312-.226.004-.453.027-.68.035-.179.008-.179.29 0 .281.489-.02.981.063 1.462.114.515.058 1.027.12 1.535.207 1.027.175 2.039.41 3.054.636.903.2 1.805.403 2.723.52.621.078 1.332.144 1.926-.094.629-.246.934-.89 1.059-1.52.183-.913.035-1.878-.29-2.742a6.955 6.955 0 00-.757-1.44c-.32-.466-.696-.915-1.14-1.263-.876-.675-1.985-.964-3.071-1.05-.57-.043-1.145-.02-1.715.035-.652.062-1.297.168-1.918.375a5.492 5.492 0 00-1.566.797c-.434.324-.848.714-1.125 1.18a3.766 3.766 0 00-.329.75c-.074.238.305.41.41.171.72-1.594.337-3.64-1.011-4.797-.68-.582-1.625-.933-2.52-.738-.902.191-1.5.977-1.683 1.848-.246 1.175.219 2.347.672 3.414.12-.07.246-.14.367-.215-1.172-1.633-2.383-3.316-4.098-4.422-.808-.52-1.726-.91-2.683-1.043a5.563 5.563 0 00-2.809.348c-1.883.742-3.27 2.254-4.414 3.87-.293.419-.578.845-.856 1.27-.246.375-.48.766-.597 1.2-.11.394-.114.843.129 1.187.257.36.668.504 1.097.523.485.024.98-.093 1.457-.171.563-.09 3.946-.645 5.075-.86.28-.054.558-.14.836-.219.101-.027.085-.195-.028-.187M32.129 34.977c1.469-.473 2.664-1.578 3.5-2.856.86-1.32 1.336-2.875 1.262-4.453-.082-1.875-.782-3.656-.938-5.52-.14-1.636.047-3.288.457-4.874.41-1.594 1.07-3.102 1.89-4.527.102-.172.177-.36.263-.536.054-.113-.082-.238-.176-.14-.559.574-.953 1.281-1.297 2-.36.75-.664 1.531-.91 2.328-.489 1.578-.758 3.242-.735 4.898.016.844.121 1.68.29 2.504.19.938.44 1.867.59 2.813.132.843.175 1.707.019 2.547a7.299 7.299 0 01-.739 2.117c-.695 1.312-1.789 2.476-3.113 3.18-.16.082-.312.171-.476.25-.153.074-.047.32.113.269M27.648 12.379c-.48-.504-.61-1.176-.664-1.848-.063-.8.055-1.601-.012-2.402-.117-1.395-.918-2.598-1.996-3.453-1.195-.953-2.652-1.469-4.09-1.942-.691-.226-1.511-.503-2.18-.05a1.15 1.15 0 00-.511.886c-.027.364.105.723.25 1.047.375.875.789 1.739 1.187 2.602.399.871.758 1.773 1.297 2.574.067.098.23.04.196-.082-.211-.8-.579-1.539-.918-2.293l-1.024-2.254c-.152-.332-.324-.664-.441-1.011-.098-.297-.168-.66.039-.926.437-.57 1.3-.278 1.851-.098 1.375.445 2.782.914 3.95 1.793 1.015.766 1.82 1.867 1.96 3.156.09.844-.042 1.696.06 2.535.085.704.359 1.434.905 1.907.098.086.23-.047.141-.14"></path><path fill="#372d28" d="M26.746 9.54c.652.448 1.438.71 2.18.968.75.262 1.523.473 2.297.66 1.535.371 3.105.621 4.683.73.43.032.867.032 1.301.028.441 0 .906.02 1.344-.051.187-.031.113-.285-.043-.305-.395-.047-.805-.027-1.203-.047-.387-.02-.774-.046-1.16-.082-.762-.07-1.528-.132-2.286-.246a28.386 28.386 0 01-4.507-1.054c-.41-.133-.825-.27-1.235-.414-.418-.153-.848-.305-1.281-.395a.114.114 0 00-.09.207M19.578 7.121a11.818 11.818 0 00-1.387 2.422c-.363.86-.629 1.762-.68 2.695-.05.89.114 1.778.512 2.578.364.739.903 1.387 1.516 1.93.684.602 1.457 1.086 2.258 1.516.816.441 1.656.84 2.5 1.23a63.115 63.115 0 005.246 2.149c.887.32 1.781.62 2.683.898.454.137.907.27 1.36.398.453.125.906.262 1.367.364l.695.144c.215.043.305-.265.09-.332-1.77-.527-3.547-1.023-5.293-1.625a63.927 63.927 0 01-5.144-2.03 65.435 65.435 0 01-2.485-1.177c-.789-.394-1.57-.812-2.285-1.324-1.32-.95-2.434-2.312-2.566-3.984-.075-.895.09-1.79.382-2.633a10.4 10.4 0 01.532-1.254c.199-.414.422-.816.617-1.234.094-.204.191-.41.277-.618.059-.136-.105-.234-.195-.113M88.031 29.477c-1.098-1.105-2.457-1.902-3.906-2.453-1.445-.55-3.04-.832-4.59-.75-1.89.101-3.695.754-5.453 1.402-1.797.664-3.637 1.364-5.566 1.473-1.56.09-3.231-.238-4.477-1.223-.156-.12-.3-.25-.438-.39-.132-.13-.43-.043-.402.168a6.54 6.54 0 00.996 2.687c.535.84 1.223 1.543 1.969 2.195a21.75 21.75 0 002.55 1.918c.9.582 1.833 1.094 2.86 1.41.512.157 1.04.27 1.57.32.524.052 1.059.005 1.575-.112 1.043-.235 2.004-.747 2.898-1.325.906-.59 1.762-1.25 2.703-1.789a10.42 10.42 0 014.551-1.363c.559-.031 1.125.008 1.684-.07.464-.067.933-.242 1.269-.586.34-.348.469-.824.39-1.305-.152-.957-.964-1.719-1.624-2.367a20.094 20.094 0 00-2.203-1.867 20.467 20.467 0 00-5.07-2.72 19.958 19.958 0 00-5.669-1.187 20.273 20.273 0 00-8.863 1.48c-.93.388-1.844.829-2.691 1.372-.414.262-.805.555-1.204.836-.14.098-.007.328.133.23.399-.277.828-.52 1.254-.754.426-.234.856-.468 1.293-.68a20.76 20.76 0 012.703-1.085 19.975 19.975 0 015.73-.98 19.342 19.342 0 015.637.703 20.2 20.2 0 015.09 2.214c1.574.965 3.047 2.149 4.278 3.532.52.585 1.18 1.609.449 2.296-.332.313-.805.418-1.246.446-.535.035-1.075.008-1.61.054-1.039.086-2.062.317-3.035.7-.98.382-1.875.918-2.742 1.507-1.649 1.13-3.445 2.516-5.563 2.368-2.062-.149-3.925-1.325-5.539-2.532-1.511-1.132-3.03-2.464-3.722-4.273a5.551 5.551 0 01-.329-1.273c-.136.054-.27.109-.406.168 1.16 1.156 2.793 1.683 4.403 1.753 1.886.083 3.73-.48 5.484-1.109 1.809-.648 3.605-1.398 5.516-1.684 1.546-.23 3.125-.046 4.613.399 1.492.441 2.949 1.086 4.18 2.055.14.109.28.226.414.347.105.094.257-.054.156-.156"></path><path fill="#372d28" d="M76.453 15.832a12.638 12.638 0 001.691-1.148c.493-.391.934-.852 1.301-1.364.715-.996 1.028-2.21.75-3.418a4.024 4.024 0 00-.785-1.61c-.355-.44-.871-.878-.898-1.487-.012-.223.046-.47.246-.594.191-.121.43-.184.652-.215.578-.078 1.094.227 1.578.504 1.852 1.062 3.395 2.598 4.418 4.477.512.94.879 1.953 1.106 3 .25 1.144.226 2.363.007 3.511-.23 1.219-.82 2.317-1.601 3.274-.774.949-1.664 1.816-2.563 2.644-.214.2-.422.395-.625.61-.086.093.028.253.145.183.531-.332 1-.773 1.457-1.203.46-.434.91-.883 1.344-1.344.87-.937 1.629-1.98 2.039-3.207.195-.586.297-1.207.351-1.824a9.58 9.58 0 00.004-1.863c-.113-1.121-.46-2.235-.926-3.258-.91-2.012-2.421-3.695-4.261-4.91-.489-.32-1.004-.645-1.555-.856a2.07 2.07 0 00-1.594.055c-.234.105-.414.258-.515.496-.114.27-.114.57-.04.852.169.632.696 1.043 1.063 1.558a3.663 3.663 0 01.426 3.465c-.48 1.227-1.535 2.133-2.563 2.902-.265.2-.53.39-.785.598-.101.082.028.234.133.172"></path><path fill="#372d28" d="M62.379 24.223c-.922-.113-1.754-.656-2.309-1.387-.578-.761-.906-1.699-1.09-2.629a6.241 6.241 0 01.008-2.593 5.65 5.65 0 011.118-2.29 6.239 6.239 0 012.14-1.695c.813-.39 1.711-.613 2.61-.707 2.117-.219 4.226.278 6.257.817 1.079.285 2.149.597 3.258.757 1.102.157 2.207.172 3.309-.011.281-.047.547-.13.816-.22.153-.054.09-.265-.066-.241-1.152.187-2.301.254-3.461.133-1.148-.118-2.254-.415-3.36-.715-2.117-.57-4.316-1.13-6.527-.953-1.91.148-3.773.851-5.07 2.304-.61.68-1.074 1.48-1.336 2.356s-.305 1.8-.18 2.707c.25 1.86 1.192 4.066 3.18 4.597.227.06.469.075.703.07.2-.003.188-.28 0-.3"></path><path fill="#372d28" d="M60.48 10.426c.496.336.977.734 1.383 1.172.203.215.383.45.543.695.168.258.336.52.476.793.07.137.301.043.25-.105a3.796 3.796 0 00-.398-.88 5.513 5.513 0 00-.598-.773 3.904 3.904 0 00-1.59-1.058c-.097-.035-.14.105-.066.156M35.957 24.32c-2.18 1.086-4.629.313-6.91.156a13.578 13.578 0 00-6.625 1.242c-.469.223-.988.45-1.375.805-.403.371-.496.895-.297 1.399.21.523.668.882 1.086 1.238.457.383.922.754 1.398 1.11.938.698 1.918 1.363 2.942 1.925.98.54 2.03.984 3.144 1.14 1.078.15 2.149-.015 3.176-.35a14.112 14.112 0 003.016-1.403c.218-.137.398-.297.578-.477.062-.062 0-.191-.094-.156-.234.082-.461.168-.684.293-.226.133-.453.266-.687.39-.469.254-.953.489-1.446.688-.957.39-1.976.691-3.015.691-1.078 0-2.133-.328-3.098-.785-1.012-.48-1.96-1.09-2.879-1.726a29.28 29.28 0 01-1.379-1.024c-.441-.347-.902-.703-1.3-1.101-.34-.34-.66-.856-.371-1.324.25-.399.757-.614 1.16-.817a13.165 13.165 0 016.355-1.36c2.239.09 4.582.93 6.758.048.238-.098.465-.227.68-.372.144-.093.02-.308-.133-.23"></path><path fill="#372d28" d="M20.914 27.777a3.08 3.08 0 01.027-.848c.043-.3.098-.601.184-.894.176-.598.46-1.137.855-1.617.43-.528.934-.985 1.457-1.418a16.366 16.366 0 011.665-1.22c.324-.206.652-.41.984-.6.176-.098.355-.188.527-.29.168-.101.336-.21.508-.312.117-.07.04-.278-.098-.23a7.443 7.443 0 00-1.015.425c-.32.168-.637.344-.942.531-.625.383-1.222.817-1.789 1.278-1.035.843-2.129 1.843-2.504 3.168-.187.664-.27 1.386-.02 2.046.032.082.173.079.161-.02M37.965 61.879c1.688 1.258 3.406 2.488 5.316 3.39 1.907.895 3.989 1.485 6.11 1.399a8.752 8.752 0 002.996-.637 9.91 9.91 0 002.445-1.484c1.442-1.172 2.602-2.652 3.696-4.14a65.606 65.606 0 002.757-4.087 78.373 78.373 0 002.625-4.547 66.237 66.237 0 002.301-4.742c.656-1.508 1.258-3.043 1.75-4.613.43-1.363.781-2.754.969-4.168.152-1.129.191-2.281-.047-3.398-.05-.235-.145-.446-.219-.672-.062-.188-.363-.106-.3.086.074.214.101.46.144.687.043.242.074.48.094.727.043.554.027 1.113-.012 1.672-.094 1.32-.379 2.625-.734 3.898-.422 1.516-.957 3-1.551 4.457a61.608 61.608 0 01-2.14 4.645 75.194 75.194 0 01-2.528 4.562 71.048 71.048 0 01-2.695 4.176c-.989 1.41-2.016 2.816-3.22 4.055-1.339 1.375-2.937 2.496-4.839 2.91-2.023.433-4.152.105-6.07-.602-1.946-.719-3.7-1.828-5.418-2.969-.43-.285-.86-.566-1.285-.851-.157-.106-.29.14-.145.246M51.824 77.254c.277 2.676.586 5.352.941 8.02.329 2.44.727 4.918 1.891 7.12 1.156 2.2 2.895 4.04 4.516 5.899 1.793 2.063 8.941 10.34 10.773 12.367.23.254.472.484.73.707.106.09.285-.027.2-.152-.368-.567-.805-1.075-1.239-1.59-.441-.52-11.094-12.72-11.93-13.703-.781-.918-1.54-1.863-2.176-2.89a13.459 13.459 0 01-1.492-3.325c-.352-1.187-.57-2.406-.754-3.629-.387-2.617-.719-5.238-1.156-7.848l-.168-.996c-.012-.078-.145-.062-.137.02M58.844 72.871c.473.586.914 1.195 1.387 1.781.472.586 3.367 4.035 4.343 5.176 1.81 2.121 3.637 4.23 5.286 6.48 1.617 2.196 3.035 4.524 4.144 7.016a34.133 34.133 0 012.875 11.492c.047.664.074 1.328.086 1.992.016.668-.027 1.336.012 2 .02.329 0 .66-.012.985-.008.18.25.168.27 0 .078-.676.164-1.352.18-2.035.019-.664.015-1.332-.012-1.996a34.14 34.14 0 00-.403-3.989 34.316 34.316 0 00-2.168-7.699c-1.039-2.527-2.379-4.91-3.949-7.144-1.61-2.293-3.418-4.434-5.234-6.563-.965-1.133-1.922-2.273-2.903-3.39-1-1.149-1.98-2.317-3.05-3.399-.258-.262-.5-.539-.75-.812-.063-.07-.16.03-.102.105"></path><path fill="#372d28" d="M39.645 78.746c.57-.125 1.105-.398 1.629-.652.539-.262 1.066-.551 1.578-.86a25.228 25.228 0 002.957-2.09c1.844-1.515 3.477-3.347 4.68-5.414a15.132 15.132 0 001.223-2.629c.109-.304.23-.613.222-.945-.004-.168-.227-.226-.312-.086-.16.25-.227.528-.32.801-.09.262-.188.523-.294.781-.21.512-.457 1.016-.726 1.5A17.993 17.993 0 0148.32 72c-1.52 1.809-3.348 3.371-5.336 4.644-.55.356-1.117.688-1.688 1.008-.57.317-1.18.574-1.722.934-.082.054-.032.183.07.16M39.656 99.445c.535-.172 1.059-.332 1.617-.398a6.376 6.376 0 011.703.039 7.692 7.692 0 011.692.46c.574.223 1.12.512 1.672.786a30.62 30.62 0 011.828.992c.117.066.215-.106.105-.18-.531-.375-1.055-.75-1.601-1.101a10.292 10.292 0 00-1.727-.887c-1.121-.45-2.336-.695-3.543-.54-.64.087-1.316.29-1.816.704-.059.047.003.144.07.125"></path><path fill="#372d28" d="M52.473 95.438c-.285.781-.371 1.602-.426 2.426-.054.797-.086 1.597-.18 2.39-.085.73-.242 1.47-.554 2.141-.313.676-.785 1.242-1.324 1.75-.453.422-.938.809-1.422 1.195-.387.313-.774.621-1.168.926a39.479 39.479 0 01-2.934 2.086c-.547.344-1.105.652-1.676.953-.449.242-.918.484-1.41.621-.113.031-.098.223.027.211 1.047-.113 1.985-.605 2.872-1.14 1.054-.637 2.062-1.36 3.043-2.106a55.418 55.418 0 002.605-2.086c.566-.488 1.106-1.027 1.504-1.668.402-.656.64-1.398.781-2.152.297-1.61.133-3.258.348-4.88.027-.206.047-.417.078-.624.016-.106-.125-.149-.164-.043"></path><path fill="#372d28" d="M52.309 98.172c.215-.09.375-.25.55-.398.173-.153.352-.301.524-.454a19.422 19.422 0 012.102-1.613c.386-.254.758-.527 1.152-.765.203-.125.02-.434-.187-.32-.407.218-.817.425-1.2.683a20.78 20.78 0 00-2.21 1.707 8.217 8.217 0 00-.493.484c-.16.168-.312.332-.402.551-.043.102.086.16.164.125M42.457 77.215a12.448 12.448 0 00-1.676-.441c-.558-.11-1.144-.172-1.71-.122a4.5 4.5 0 00-2.755 1.266c-1.605 1.547-2.062 3.883-2.398 5.996-.371 2.32-.484 4.692-.176 7.024.274 2.07.871 4.09 1.864 5.933a14.695 14.695 0 001.64 2.446c.606.726 1.293 1.46 2.11 1.96.207.125.417.243.636.352.086.043.192-.07.11-.14-.348-.317-.692-.637-1.04-.954-.347-.32-.687-.652-1.007-1a14.056 14.056 0 01-1.668-2.222c-1.016-1.688-1.688-3.56-2.04-5.493-.41-2.238-.394-4.539-.12-6.793.136-1.113.328-2.226.605-3.308.266-1.02.64-2.02 1.277-2.864.551-.73 1.305-1.332 2.196-1.59 1.062-.308 2.21-.167 3.28.032.27.05.536.101.805.144.149.024.211-.175.067-.226"></path><path fill="#372d28" d="M38.293 100.16c-.234.246-.375.582-.547.879s-.348.598-.531.89a14.38 14.38 0 01-1.238 1.676c-.66.766-1.29 1.567-1.602 2.543a2.98 2.98 0 00-.156.946 2.4 2.4 0 00.062.5c.04.156.07.328.184.445.047.047.152.031.16-.043.02-.14-.02-.266-.027-.406a3.495 3.495 0 01.156-1.238c.156-.52.422-.997.726-1.438.243-.356.52-.676.801-1.004.438-.516.844-1.062 1.207-1.637.207-.324.403-.652.57-1 .16-.328.36-.683.387-1.05.004-.075-.101-.114-.152-.063M47.754 106.37c.516.254 1.098.371 1.66.5.574.133 1.156.23 1.742.309a26.568 26.568 0 0010.457-.653c1.278-.34 2.52-.793 3.723-1.347.203-.094.055-.457-.156-.368a28.017 28.017 0 01-6.664 1.88c-2.27.335-4.59.363-6.867.097a34.087 34.087 0 01-1.895-.293c-.644-.113-1.285-.3-1.937-.356-.122-.011-.172.176-.063.23M63.348 77.781c-.336-2.125-.52-4.254-.383-6.406.13-2.113.54-4.211 1.203-6.219.328-.996.715-1.973 1.176-2.91.387-.781.863-1.543 1.516-2.13.636-.57 1.468-.898 2.324-.714.965.207 1.754.895 2.43 1.574 2.777 2.801 4.937 6.23 6.328 9.914a28.344 28.344 0 011.515 5.743 23.66 23.66 0 01.133 6.082c-.437 4.14-1.871 8.082-3.781 11.762-.117.222-.223.445-.328.671-.106.223-.192.465-.32.676-.07.121.117.23.19.11.13-.22.306-.422.45-.633.156-.223.293-.453.43-.688.258-.457.504-.918.73-1.386.465-.961.887-1.942 1.266-2.942a30.93 30.93 0 001.656-6.195c.328-2.086.422-4.215.2-6.317a28.268 28.268 0 00-1.305-5.957 29.05 29.05 0 00-6.14-10.453c-1.255-1.367-3.005-3.105-5.036-2.277-.828.34-1.469 1.004-1.973 1.727-.566.808-.969 1.726-1.344 2.636a24.297 24.297 0 00-1.625 6.313 23.708 23.708 0 00.121 6.504c.086.535.192 1.058.332 1.582.043.152.258.086.235-.067"></path><path fill="#372d28" d="M66.84 44.672c.035.203.055.41.102.61.046.19.093.382.144.574.102.398.223.789.344 1.18.242.777.504 1.546.777 2.308a81.8 81.8 0 001.852 4.637 140.594 140.594 0 002.086 4.55c.715 1.5 4.543 9.246 4.636 9.426.059.11.254.035.207-.086-.586-1.515-1.328-2.972-2.02-4.445-.706-1.504-3.585-7.512-4.26-9.04a83.775 83.775 0 01-1.884-4.589c-.57-1.52-1.062-3.062-1.535-4.613-.062-.196-.148-.383-.215-.574-.054-.149-.257-.09-.234.062M19.34 87.625c.012.29.023.574.078.86a18.826 18.826 0 00.668 2.44c.383 1.071.856 2.114 1.414 3.106a19.98 19.98 0 004.285 5.25c.961.836 2.004 1.614 3.13 2.215.179.098.433-.11.3-.3-.75-1.067-1.336-2.262-1.848-3.458-.515-1.207-.945-2.449-1.34-3.695-.796-2.508-1.46-5.063-2.402-7.523-.465-1.215-.992-2.407-1.636-3.536-.598-1.058-1.454-2.668-2.918-2.445-.618.098-1.043.61-1.32 1.133-.31.59-.544 1.234-.75 1.867a17.841 17.841 0 00-.829 4.04 17.818 17.818 0 001.168 8.089c.13.32.266.637.41.95.094.198.414.097.407-.11-.028-.856-.051-1.711-.024-2.567.016-.398.04-.793.074-1.187.02-.211.043-.422.07-.633.028-.219.02-.441.055-.656.036-.219-.297-.313-.332-.094-.035.215-.101.43-.132.649-.032.21-.055.43-.079.644-.039.41-.066.82-.082 1.234-.035.868-.015 1.743.016 2.61.133-.035.27-.07.402-.11-1.132-2.43-1.656-5.124-1.578-7.8a17.27 17.27 0 01.57-3.942c.168-.644.38-1.28.622-1.902.21-.531.43-1.133.867-1.527.472-.422 1.133-.309 1.61.047.523.394.862 1.011 1.19 1.562a23.366 23.366 0 011.653 3.402c.95 2.383 1.61 4.86 2.367 7.305.754 2.442 1.61 4.875 2.918 7.082.16.266.324.531.488.793.102-.101.204-.2.301-.3-.957-.579-1.883-1.192-2.742-1.91a20.017 20.017 0 01-5.777-8.02 21.714 21.714 0 01-.606-1.758c-.09-.305-.172-.61-.246-.918-.04-.153-.07-.305-.125-.457-.05-.149-.098-.301-.145-.45-.027-.081-.156-.07-.152.02"></path><path fill="#372d28" d="M17.953 89.066c-.29 1.86.156 3.781 1.059 5.418a10.018 10.018 0 003.558 3.691c.43.262.883.5 1.363.66.516.176 1.09.274 1.625.133.172-.047.145-.336-.042-.32a3.03 3.03 0 01-1.356-.191c-.406-.153-.8-.36-1.176-.578a9.733 9.733 0 01-1.922-1.465 9.745 9.745 0 01-2.527-4.356 13.175 13.175 0 01-.441-2.976c-.004-.075-.13-.102-.141-.016M18.469 81.094c1.578-2.125 3.563-3.96 5.926-5.18 1.258-.648 2.726-1.152 4.14-.726 1.352.402 2.121 1.656 2.84 2.773.422.656.863 1.332 1.477 1.824.582.47 1.289.836 2.047.871.183.008.23-.3.043-.328a3.852 3.852 0 01-1.82-.812c-.555-.442-.958-1.04-1.34-1.63-.75-1.151-1.508-2.425-2.848-2.964-1.399-.562-2.95-.176-4.262.434a15.63 15.63 0 00-3.414 2.199 13.716 13.716 0 00-1.621 1.574 13.081 13.081 0 00-1.34 1.863c-.07.114.098.204.172.102"></path><path fill="#372d28" d="M20.973 81.504c.18-.293.34-.602.535-.887a5.641 5.641 0 012.102-1.809c.898-.456 1.937-.812 2.965-.699.492.055.949.254 1.285.598.328.332.531.746.707 1.168.18.438.316.887.496 1.324.25.606.61 1.18.988 1.715a8.934 8.934 0 001.402 1.574c.516.457 1.098.82 1.7 1.164.164.094.328.184.5.266.148.07.285-.148.148-.242-.309-.215-.633-.414-.937-.633-.286-.2-.555-.414-.82-.629a8.569 8.569 0 01-1.446-1.492c-.414-.55-.813-1.148-1.086-1.785-.187-.438-.324-.895-.5-1.336-.184-.457-.406-.918-.734-1.29a2.509 2.509 0 00-1.352-.784c-1.059-.23-2.234.097-3.191.539a6.359 6.359 0 00-1.57 1.004c-.25.218-.485.46-.684.726-.211.277-.418.59-.543.914-.067.172-.113.34-.14.52-.013.09.124.16.175.074M82.082 77.793c1.21.398 2.422.781 3.633 1.188a85.6 85.6 0 013.629 1.32c.336.129 1.316.52 1.472.582.176.07.34.156.532.148a.19.19 0 00.132-.32c-.117-.129-.265-.18-.421-.246-.153-.059-1.024-.41-1.313-.524a59.057 59.057 0 00-5.531-1.836 29.368 29.368 0 00-2.086-.488c-.113-.02-.16.14-.047.176"></path><path fill="#372d28" d="M79.125 87.07c.36.121.766.066 1.133.004a4.854 4.854 0 001.086-.336c.726-.309 1.375-.758 1.972-1.273s1.137-1.094 1.672-1.676c.57-.625 2.996-3.29 3.153-3.48.152-.188.316-.368.41-.594.05-.125-.11-.211-.207-.16-.18.093-.32.245-.465.386-.156.152-.313.309-.461.473-.281.304-1.953 2.136-2.508 2.746-1.02 1.117-2.055 2.273-3.41 2.992-.371.195-.758.34-1.16.461-.2.059-.403.105-.61.14-.203.032-.406.047-.605.106-.11.027-.102.176 0 .211"></path><g clip-path="url(#f)"><path fill="#372d28" d="M78.051 70.809c.227.05.453.113.688.137.222.023.449.043.675.05.461.016.926-.015 1.383-.058a13.438 13.438 0 002.719-.555 13.99 13.99 0 002.543-1.105c.812-.438 1.605-.918 2.457-1.281 1.422-.602 3.293-.864 4.543.25.61.542.988 1.28 1.308 2.019.356.82.672 1.66.934 2.516.254.82.453 1.656.586 2.504.066.417.11.84.14 1.261.036.45.051.899.087 1.348.02.23.035.46.058.691.012.133.227.188.25.032.153-.899.121-1.82.02-2.727a17.068 17.068 0 00-.496-2.586 22.881 22.881 0 00-.871-2.555c-.325-.812-.665-1.632-1.211-2.328a3.575 3.575 0 00-2.043-1.308c-.82-.18-1.688-.11-2.493.105-1.808.488-3.308 1.703-5.03 2.395a12.74 12.74 0 01-2.727.761c-.918.153-1.856.188-2.786.172-.234-.004-.468.012-.703.016-.136 0-.175.215-.031.246"></path></g><g clip-path="url(#g)"><path fill="#372d28" d="M75.625 110.98c-.168-.148-.398-.195-.59-.063-.207.141-.277.41-.34.637-.062.227-.129.504-.382.574-.254.067-.56-.03-.81-.074a16.66 16.66 0 01-1.792-.437c-.234-.07-.543-.137-.684-.356-.136-.215.035-.39.203-.515a7.49 7.49 0 011.477-.801 8.577 8.577 0 011.606-.496c.847-.176 2.308-.434 2.707.613.171.45.058 1.21-.524 1.29-.289.042-.48-.204-.683-.364-.227-.18-.555-.332-.79-.082-.07.078-.015.191.086.2.063.003.125.03.188.042a.513.513 0 01.168.063c.129.07.23.18.344.273.234.191.492.293.8.234.582-.113.903-.754.871-1.304a1.53 1.53 0 00-.828-1.29c-.515-.253-1.113-.238-1.672-.171a9.035 9.035 0 00-3.558 1.214c-.23.137-.492.282-.664.493a.677.677 0 00-.067.797c.16.253.438.378.711.464.325.106.649.192.977.274.371.09.746.172 1.125.238.316.055.664.117.969-.023.297-.141.418-.438.488-.739.066-.27.168-.761.55-.547.09.047.192-.074.114-.144"></path></g><path fill="#372d28" d="M38.918 111.17c.352.012.707-.082 1.043-.188.32-.101.637-.238.922-.414.258-.164.582-.375.64-.699.06-.324-.195-.55-.44-.71a10.394 10.394 0 00-3.978-1.493 10.256 10.256 0 00-1.043-.113 6.574 6.574 0 00-1.074-.004c-.328.035-.586.2-.687.523-.098.313-.063.692 0 1.004.125.61.64 1.223 1.324 1.102.328-.063.574-.3.812-.516.188-.172.52-.441.786-.262.289.196.113.727.132 1.004a.896.896 0 00.614.797c.375.14.824.098 1.207.032.39-.067.824-.227 1.156-.45.07-.047.027-.164-.063-.14-.316.082-.628.183-.957.226-.32.043-.656.098-.98.063-.285-.032-.578-.176-.625-.485-.043-.297.055-.59-.004-.886-.059-.274-.25-.496-.531-.547-.29-.055-.563.062-.79.234-.23.176-.421.434-.695.547-.246.102-.52.016-.71-.16-.22-.2-.32-.492-.356-.781-.031-.239-.074-.602.082-.809.082-.113.219-.137.348-.145.156-.011.312-.011.468-.011.317.004.637.02.954.05 1.265.122 2.511.489 3.644 1.07.305.157.637.317.91.532.106.086.2.195.133.336-.066.133-.21.227-.328.309-.285.195-.59.363-.91.496-.332.136-.688.215-1.024.336-.082.03-.07.148.02.152"></path><g clip-path="url(#h)"><path fill="#372d28" d="M96.645 78.848c-.145-.23-.316-.422-.594-.477-.27-.05-.55-.011-.82.024-.55.07-1.094.215-1.61.422a6.996 6.996 0 00-1.456.785c-.43.305-.887.68-.91 1.246a.833.833 0 00.296.68c.2.172.45.258.696.34.53.18 1.12.285 1.652.046a1.33 1.33 0 00.527-.425c.156-.215.192-.453.188-.715 0-.102-.012-.242.066-.324.074-.079.207-.055.297-.024.266.09.465.293.762.29.617 0 1.027-.684 1.07-1.235.043-.543-.395-1.156-.992-.965-.117.035-.106.227.027.219a.622.622 0 01.5.254c.137.164.156.398.11.597-.086.403-.446.957-.926.746-.207-.093-.387-.234-.621-.261a.528.528 0 00-.524.218c-.133.196-.11.422-.136.645a.742.742 0 01-.243.46c-.328.302-.797.317-1.21.227a4.738 4.738 0 01-.692-.218c-.176-.07-.367-.176-.434-.368-.14-.433.301-.8.606-1.023a6.585 6.585 0 012.703-1.156c.262-.05.527-.094.793-.102.27-.008.45.09.629.285.121.13.34-.039.246-.191"></path></g><path fill="#372d28" d="M57.23 108.56c-.89-.477-1.91-.59-2.91-.516-.48.04-.961.118-1.438.22-.437.093-.925.202-1.23.562a.955.955 0 00-.121 1.12c.215.372.597.602.984.759.512.21 1.156.3 1.563-.157.105-.117.18-.254.257-.39.016-.02.028-.043.04-.063-.036.055.007 0 .023-.02a.76.76 0 01.101-.093.5.5 0 01.157-.082.46.46 0 01.125-.004c.21.043.386.254.539.41.152.164.324.356.554.399.313.054.657-.032.95-.13.297-.1.629-.238.851-.472.328-.348.403-.871.086-1.246-.293-.344-.789-.52-1.215-.621-.41-.098-.87-.188-1.293-.145-.039.004-.078.008-.113.016-.02 0-.086.012-.058.012-.153.015-.157.254 0 .238-.032.004.05.004.07.004l.086.012c-.024-.004.02.003.027.003.016.004.035.004.05.008.052.008.102.016.153.02.196.023.371.047.567.086.414.082.847.191 1.207.41.14.09.257.187.328.332a.52.52 0 01.031.172c0 .058 0 .043-.016.101-.007.035-.027.09-.035.114-.101.234-.281.355-.512.468-.261.13-.566.23-.859.254a.85.85 0 01-.172.004c-.027 0-.031 0-.054-.004-.012 0-.07-.02-.036-.008-.086-.035-.129-.085-.199-.152-.176-.172-.332-.36-.531-.5-.2-.144-.45-.21-.688-.121a.989.989 0 00-.496.422c-.03.055-.058.113-.093.168-.051.082-.055.086-.118.152a.613.613 0 01-.421.203c-.317.02-.637-.097-.91-.234-.298-.148-.65-.402-.684-.758-.04-.398.36-.648.687-.754.418-.136.86-.215 1.293-.285a7.018 7.018 0 013.387.285c.117.04.195-.14.086-.199"></path><path fill="#372d28" d="M49.918 106.74c0 .32.016.629.094.941.07.282.172.555.312.809.27.496.649.887 1.149 1.152.168.094.289-.14.144-.25a4.033 4.033 0 01-.984-1.105c-.281-.485-.38-1.043-.54-1.57-.03-.098-.175-.083-.175.023M57.715 106.96c-.086.117-.004.355 0 .496.008.156.004.316-.016.473-.027.18-.078.355-.117.531a8.84 8.84 0 00-.062.313c-.024.105-.043.21.035.296.023.028.058.032.094.024.113-.024.156-.133.195-.23.043-.114.094-.223.129-.337.062-.195.101-.402.129-.605a1.714 1.714 0 00-.012-.547c-.027-.152-.078-.414-.25-.469-.05-.015-.098.012-.125.055"></path><path d="M52.27 29.5c-.07.574.297 1.09.824 1.156.524.067 1.008-.347 1.078-.922s-.297-1.093-.824-1.16c-.523-.062-1.008.352-1.078.926M41.078 28.441c-.063.523.273.996.75 1.055.48.058.922-.317.984-.84.067-.524-.27-.996-.75-1.055-.476-.058-.918.317-.984.84"></path><path fill="#372d28" d="M27.23 55.398c.344.418.855.707 1.316.98.457.27.934.512 1.418.73.957.435 1.954.774 2.997.919.304.047.613.078.921.094.293.015.653.066.934-.043.14-.051.148-.242 0-.293-.25-.086-.54-.059-.805-.078a8.691 8.691 0 01-.781-.09c-.504-.082-1-.2-1.484-.348-.98-.293-1.91-.723-2.801-1.223-.258-.14-.52-.277-.778-.421-.269-.153-.542-.297-.847-.38-.094-.027-.145.087-.09.153"></path><path fill="#372d28" d="M30.422 57.137c.36.398.777.738 1.207 1.063.215.16.441.304.668.445.254.156.516.324.789.441.207.086.387-.191.18-.312-.242-.145-.504-.27-.746-.414-.239-.145-.47-.297-.7-.45-.437-.293-.843-.628-1.277-.93-.098-.07-.195.075-.121.157"></path></svg>