<svg xmlns="http://www.w3.org/2000/svg" viewBox="0 0 112.5 112.5" version="1.2" height="150" width="150"><defs><clipPath id="a"><path d="M14.695 94H29v10H14.695z"></path></clipPath></defs><path fill-rule="evenodd" fill="#667383" d="M88.68 50.688C77.86 56.18 74.282 63.805 77.082 66.239c1.98 1.723 13.559-3.04 17.082.066 3.91 3.45-8.3 20.812-33.016 27.188l-.414-4.3C84.422 84.322 93.32 69.7 91.796 68.138c-2.375-2.446-12.875 2.312-16.055-.184-3.691-2.894.402-13.742 12.938-17.266"></path><path fill-rule="evenodd" fill="#aeb9c2" d="M88.68 50.688C75.778 56.95 74.653 64.696 76.821 66.434c2.223 1.781 13.676-2.953 17.199.156 3.344 2.95-8.234 20.141-32.949 26.52l-.168-3.703c23.488-4.621 33.004-19.543 31.062-21.543-2.43-2.5-12.848 2.305-16.031-.191-3.691-2.895.531-13.027 12.746-16.984"></path><path fill-rule="evenodd" fill="#8e9dab" d="M88.68 50.688c-11.426 5.547-13.617 12.258-12.461 14.926-1.45-1.945-.387-7.61 7.785-12.93a27.866 27.866 0 014.676-1.996zm5.488 16.051c2.828 3.34-8.77 20.094-33.098 26.371l-.023-.54c23.172-6.07 34.707-21.636 33.12-25.831zm-2.27 1.066a.832.832 0 00-.206-.414c-2.43-2.5-12.848 2.305-16.027-.191a3.128 3.128 0 01-.64-.684c.214.457.515.848.91 1.157 3.156 2.476 13.425-2.227 15.964.132"></path><g clip-path="url(#a)"><path fill-rule="evenodd" fill="#9d7077" d="M27.727 97.473c-2.363-2.34-6.707-3.457-7.523-3.09-1.395.54-5.172 4.578-5.395 6.633-.094.883.535 2.184 1.656 2.676 3.746-.723 7.864-1.711 11.61-2.434-1.715-1.52-1.13-2.152-.348-3.785"></path></g><path fill-rule="evenodd" fill="#feeff4" d="M27.812 97.539c-1.52-1.156-6.09-3.406-7.508-2.89-1.402.511-4.976 4.503-5.199 6.558-.094.883.91 1.973 1.637 2.27 3.742-.723 7.586-1.497 11.332-2.22 2.605.098 5.215.2 7.82.298l-2.18-2.075c-2.406-.804-3.496-1.136-5.902-1.941"></path><path fill-rule="evenodd" fill="#f4d4d8" d="M15.266 100.55a3.131 3.131 0 00-.16.656c-.094.883.91 1.973 1.637 2.27 1.015-.196 2.043-.395 3.074-.598-1.02-.219-2-.305-2.914-.129-.707-.285-1.676-1.328-1.637-2.199"></path><path fill-rule="evenodd" fill="#9d7077" d="M18.227 97.41c-.969 1.777-2.5 4.64-2.273 5.863.234 1.285 2.691.934 3.753.742 1.38-4.89.481-5.543-1.48-6.605"></path><path fill-rule="evenodd" fill="#feeff4" d="M18.227 97.41c-.762 2.07-2.281 4.871-1.93 6.066.188.645 2.57.364 3.66.246.63-2.218 1.254-4.437 1.883-6.656l-3.613.344"></path><path fill-rule="evenodd" fill="#f4d4d8" d="M16.246 103.05c-.004.16.012.305.05.43.188.644 2.571.363 3.661.246l.258-.914c-.16.09-.328.18-.5.27-.942.1-2.848.323-3.469-.032"></path><path fill-rule="evenodd" fill="#9d7077" d="M38.289 102.14c-3.203.457-6.8.863-9.828.133-4.387 2.113-9.555 2.418-9.527 1.242.039-1.516.464-4.086 1.714-5.371 2.954 1.176 16.211 2.695 17.641 3.996"></path><path fill-rule="evenodd" fill="#feeff4" d="M37.812 102.11c-3.156.27-6.375.586-9.398-.145-3.72 1.739-9.04 2.47-9.106 1.481-.101-1.512.567-3.863 1.34-5.309 5.879 1.407 12.242 2.188 18.074 3.067-.207.367-.703.543-.91.906"></path><path fill-rule="evenodd" fill="#f4d4d8" d="M37.812 102.11c-3.156.27-6.375.586-9.398-.145-3.72 1.739-9.04 2.47-9.106 1.481a5.26 5.26 0 01-.012-.36c1.07.547 5.594-.101 8.875-1.566 3.024.801 6.243.555 9.399.36a.68.68 0 00.34.097.773.773 0 00-.098.133"></path><path fill-rule="evenodd" fill="#667383" d="M29.465 72.891c-2.04 3.906-5.348 6.293-7.144 10.695-1.04 2.543.484 10.41 4.898 13.5 8.176 2.195 6.11-15.68 5.031-24.977-1.125-.05-1.66.836-2.785.781"></path><path fill-rule="evenodd" fill="#aeb9c2" d="M29.465 72.836c-1.61 3.98-5.07 6.414-6.867 10.82-1.07 2.621.66 9.96 4.828 13.66 3.402 1.473 4.113 3.75 8 4.418-1.098-9.488-2.078-20.137-3.176-29.625-1.125-.05-1.66.781-2.785.727M32.844 59.961c.668 0 .828-.07-1.523.168l-1.48 5.523 3.976 5.946 1.988-6.286-2.96-5.351"></path><path fill-rule="evenodd" fill="#8a7b6a" d="M32.82 64.902c-.809 8.684-5.988 12.035-6.707 20.461-.355 4.144 3.633 14.227 11.367 17.828 3.652 1.7 11.75 2.707 17.176 1.094-.602-12.234-1.422-24.617-2.02-36.852-6.906-.832-12.913-1.7-19.815-2.531"></path><path fill-rule="evenodd" fill="#fef9f5" d="M33.172 64.367c-.906 8.684-5.973 12.773-6.8 20.754-.415 3.992 3.534 14.441 11.542 18.004 3.531 1.574 12.56 2.586 17.258.7-.605-12.235-1.215-24.47-1.82-36.704-6.969-.832-13.207-1.922-20.18-2.754"></path><path fill-rule="evenodd" fill="#f5ebe4" d="M29.016 76.531c-1.21 2.598-2.3 5.254-2.644 8.59-.415 3.992 3.535 14.44 11.542 18.004 3.532 1.574 12.56 2.586 17.258.699l-7.156-17.047c4.72 15.371-6.007 15.664-10.379 13.965-4.464-1.734-7.062-5-8.8-8.809-1.446-3.16-2.145-5.199-1.957-7.007.292-2.797 1.226-6.184 2.195-8.387l-.059-.008"></path><path fill-rule="evenodd" fill="#9d7077" d="M26.559 70.922c.492 2.89 2.988 6.813 4.84 6.164.137-1.484.273-2.879.41-4.363-.7-2.04-1.395-4.074-2.09-6.11-1.512-2.449-3.789 1.829-3.16 4.309"></path><path fill-rule="evenodd" fill="#feeff4" d="M26.559 70.922c.95 2.793 3.106 6.637 4.84 6.25l.41-4.45c-.7-2.038-2.59-5.831-3.285-7.866-1.512-2.45-2.594 3.586-1.965 6.066"></path><path fill-rule="evenodd" fill="#9d7077" d="M32.012 66.234c1.11.738 1.781 2.43 1.977 3.84.464 3.328-.438 6.328-1.774 6.437-1.531-4.402-1.617-8.594-.203-10.277"></path><path fill-rule="evenodd" fill="#feeff4" d="M32.012 66.234c.852.977 1.523 2.336 1.723 3.746.414 2.996-.082 6.422-1.52 6.531-1.258-3.57-3.312-9.355-4.566-12.926 1.187.145 3.074.98 4.363 2.649"></path><path fill-rule="evenodd" fill="#9d7077" d="M28.957 72.742c-.2.875 1.465 4.68 2.785 4.625.414-.016.778-.75.95-1.91.206-1.445-.118-4.188-.544-4.535-.71 1.199-1.453 2.05-3.19 1.82"></path><path fill-rule="evenodd" fill="#feeff4" d="M28.957 72.742c.613 1.703 1.715 4.54 2.766 4.574.855.028 1.066-3 .425-6.394-1.129.62-2.062 1.203-3.191 1.82"></path><path fill-rule="evenodd" fill="#667383" d="M26.688 70.801c-.406-.844-.457-2.356-.094-3.484.867-2.68 4.567-5.559 5.336-9.805-1.476 2.945-4 4.062-5.7 6.516-.815 1.175-.718 6.316.458 6.773"></path><path fill-rule="evenodd" fill="#aeb9c2" d="M26.68 70.809c-.45-1.688.152-3.64.656-3.785.371-.293 1.54.238 2.153.875.433-1.215.937-1.309 1.187-1.38.215-.034.86.259 1.461 1.052-.059-.426-.223-.825-.512-1.336-.648-1.614.38-6.07.535-8.696-1.472 2.946-3.933 4.055-5.656 6.528-.816 1.176-.754 5.71.176 6.742"></path><path fill-rule="evenodd" fill="#8a7b6a" d="M37.656 47.926c-1.543 1.457-3.887 2.633-5.863 3.875.277.465.941.602 1.53.512-1.355.824-2.386 1.777-2.808 2.996.305.254.79.09 1.336-.211-.773 1.078-1.355 3.098-1.332 4.59.051 2.98 1.785 7.843 4.207 9.53 10.672-5.312 8.164-20.32 2.93-21.292"></path><path fill-rule="evenodd" fill="#fef9f5" d="M37.656 47.926c-1.262 1.93-3.695 2.957-5.863 3.875.601.379 1.422.34 2.097.336-1.355.828-2.582 1.906-3.375 3.172.329.078 1.293-.348 1.926-.758-.773 1.078-1.625 3.602-1.601 5.098.05 2.98 1.507 7.176 3.886 9.57 2.278 2.293 7.309 3.64 10.281 3.719 1.813.086 3.625.176 5.434.265 2.027-8.265 4.05-16.535 6.074-24.8-6.285-.157-12.574-.317-18.859-.477"></path><path fill-rule="evenodd" fill="#667383" d="M55.164 49.93c-.21 8.89-3.652 22.629-4.781 32.227 4.558-1.238 9.832-5.242 14.395-6.484-4.852-3.043-6.168-20.598-5.422-22.746.781-2.243 1.742-3.82 2.933-4.786-2.16.68-4.964 1.114-7.125 1.79"></path><path fill-rule="evenodd" fill="#aeb9c2" d="M49.094 49.137c1.867 1.297 3.031 3.836 2.309 5.418-3.844 2.563-4.836 7.035-4.82 10.59.027 5.922 4.015 11.191 3.327 17.012 4.563-1.238 9.832-5.242 14.398-6.484-4.851-3.043-6.168-20.598-5.422-22.746.782-2.243 1.743-3.82 2.934-4.786-2.16.68-10.566.317-12.727.996"></path><path fill-rule="evenodd" fill="#667383" d="M50.039 79.633c-3.629 3.477-3.063 12.789-2.402 15.562.664 2.77 3.89 8.695 5.77 10.121 2.784 2.113 6.741 3.445 8.98 2.629 1.804-4.313 2.05-10.297 8.87-5.477 2.856-3.48 1.747-15.137.747-17.516-1.89-4.484-5.711-8.824-9.848-11.062-.531 4.617-5.816 9.563-12.117 5.742"></path><path fill-rule="evenodd" fill="#aeb9c2" d="M49.879 79.148c-3.05 3.86-2.684 13.062-2.023 15.836.664 2.77 3.968 8.719 5.851 10.148 2.781 2.113 6.106 2.746 7.957 2.695 1.246-.175 7.707-4.25 9.594-5.36 2.43-4.007 1.363-15.038.36-17.417-1.887-4.488-5.477-8.086-9.462-11.16-3.171-2.441-8.972 1.078-12.277 5.258"></path><path fill-rule="evenodd" fill="#ccd6e2" d="M71.742 86.438c-.09-.426-.207-.895-.371-1.285-1.902-4.52-5.547-8.098-9.379-11.051a3.444 3.444 0 00-.977-.528c.098.07.192.149.29.227 4.543 3.527 8.753 8.465 10.438 12.637"></path><path fill-rule="evenodd" fill="#8e9dab" d="M47.547 86.59c-.328 3.438-.055 6.879.309 8.395.664 2.769 3.968 8.718 5.851 10.147 2.781 2.114 5.89 2.836 7.746 2.79 1.606.12 6.164-.918 5.762-4.29-1.547 4.051-9.09 3.81-13.137.508-2.75-2.246-5.574-7.265-5.938-9.777-.437-3.05-.43-5.66-.593-7.773"></path><path fill-rule="evenodd" fill="#9d7077" d="M71.207 102.39c2.316.512 5.273 4.703 5.57 6.16.278 1.348-.504 1.973-1.629 2.317-1.742-2.692-3.449-5.606-5.195-8.293.594-.04.664-.145 1.254-.184"></path><path fill-rule="evenodd" fill="#feeff4" d="M70.891 102.5c1.46-.504 4.879 3.883 5.606 6.05.304.915-.438 1.942-1.59 1.97-1.137-1.754-6.727-7.836-4.016-8.02"></path><path fill-rule="evenodd" fill="#f4d4d8" d="M73.117 103.62c1.422 1.352 2.922 3.57 3.379 4.926.305.914-.438 1.941-1.59 1.969a6.562 6.562 0 00-.242-.352c1.094-.082 1.781-1.074 1.484-1.96-.418-1.247-1.718-3.22-3.03-4.583"></path><path fill-rule="evenodd" fill="#9d7077" d="M65.367 104.5c1.52-1.781 4.453-2.441 5.66-2.11-.012.88.457.43 1.082 1.231 1.563 1.488 2.992 4.633 3.406 6.875.293 1.047-3.652 1.55-5.52.922.786-3.152-1.01-5.371-4.628-6.918"></path><path fill-rule="evenodd" fill="#feeff4" d="M65.367 104.5c1.73-1.457 4.738-2.16 5.582-2.137 1.492.035 3.457 4.957 4.2 8.035.21.883-3.247 1.31-5.114.684-1.555-2.3-3.113-4.281-4.668-6.582"></path><path fill-rule="evenodd" fill="#f4d4d8" d="M72.773 104.17c.992 1.723 1.918 4.324 2.375 6.227.21.882-3.246 1.308-5.113.683-.082-.125-.164-.242-.246-.363 1.898.55 5.148.121 4.941-.734-.418-1.739-1.137-4.09-1.957-5.813"></path><path fill-rule="evenodd" fill="#9d7077" d="M69.496 106.16c1.121 1.566 1.379 3.484 1.535 5.05.086.856-2.457.825-4.941-.296-2.348-1.059-4.7-2.48-4.403-3.016 3.196-.27 7.055-1.441 7.81-1.738"></path><path fill-rule="evenodd" fill="#667383" d="M57.355 74.969c2.332-1.75 5.602-17.582.605-19.484-.757 3.254-2.64 6.45-4.78 7.23-.673 2.16-2.106 5.817-3.856 6.485-.52 3.297 3.113 5.808 8.031 5.77"></path><path fill-rule="evenodd" fill="#aeb9c2" d="M57.113 74.773c2.106-1.668 5.09-14.684 1.332-18.988-2.32-2.832-4.363 2.902-5.3 7.082-.348 2.637-1.88 5.547-3.618 6.738-.52 3.297 2.668 5.41 7.586 5.168"></path><path fill-rule="evenodd" fill="#9d7077" d="M37.664 70.793c-3.406 2.398-5.356 6.922-4.106 8.34 3.66-2.727 7.094-5.41 10.75-8.14-1.757-1.247-4.081-2.005-6.644-.2"></path><path fill-rule="evenodd" fill="#feeff4" d="M37.789 70.965c-3.41 2.398-5.21 7.113-4.18 8.207 3.657-2.727 7.575-5.574 11.23-8.3-1.707-1.477-4.382-1.786-7.05.093"></path><path fill-rule="evenodd" fill="#f4d4d8" d="M34.344 74.934c-.996 1.855-1.316 3.621-.734 4.238.941-.699 1.898-1.41 2.863-2.12-.469-.192-.945-.43-1.434-.72-.722.797-1.468 1.43-1.379.77.086-.625.32-1.379.684-2.168"></path><path fill-rule="evenodd" fill="#9d7077" d="M34.551 79.801c1.484 1.313 8.898-1.238 11.891-5.207-3.758-.922-7.879.7-9.336 1.281-.695 1.281-1.86 2.645-2.555 3.926"></path><path fill-rule="evenodd" fill="#feeff4" d="M34.172 79.664c1.484 1.313 9.098-1.426 12.191-4.934 1.082-1.285-.813-3.273-1.426-4.765l-8.215 5.777c-.691 1.281-1.859 2.645-2.55 3.922"></path><path fill-rule="evenodd" fill="#f4d4d8" d="M34.172 79.664c1.473 1.305 8.977-1.383 12.117-4.852-.04-.441.023-.226-.129-.046-2.062 2.402-9.488 5.285-11.96 4.847l-.028.051"></path><path fill-rule="evenodd" fill="#9d7077" d="M39.203 76.492c-.71 1.004-1.746 1.918-2.746 2.566-.36.235-2.309 1.543-2.836.645-.8-1.363 1.73-4.898 3.191-5.844-.132 1.113.774 2.195 2.391 2.633"></path><path fill-rule="evenodd" fill="#feeff4" d="M39.156 76.375a14.156 14.156 0 01-2.734 2.45c-.332.226-2.422 1.69-2.782.75-.41-1.063 1.426-3.727 3.172-5.716.672.801 1.668 1.715 2.344 2.516"></path><path fill-rule="evenodd" fill="#667383" d="M45.258 75.594c1.219 1.746 8.188 1.672 12.098-.625-4.902-.195-7.2-2.394-6.707-5.473-3.59-1.582-10.875-.476-12.129.965 3.168-1.828 10.562 2.594 6.738 5.133"></path><path fill-rule="evenodd" fill="#aeb9c2" d="M45.227 75.645c2.629 1.535 8.77.8 11.887-.871-2.238-1.957-3.871-3.234-6.11-5.191-4.68-1.196-10.925-.223-12.483.878.964-.43 4.144-.562 2.644 1.086 1.516-.511 5.195.782 2.895 1.793 1.37-.265 1.851 1.223 1.168 2.305"></path><path fill-rule="evenodd" fill="#f4d4d8" d="M39.156 76.375a14.156 14.156 0 01-2.734 2.45c-.332.226-2.422 1.69-2.782.75a.947.947 0 01-.058-.345.19.19 0 00.015.043c.36.942 2.446-.523 2.782-.753.843-.57 1.922-1.282 2.765-2.157l.012.012"></path><path fill-rule="evenodd" fill="#feeff4" d="M69.496 106.16c.816 1.684 1.016 3.309 1.129 4.879.105 1.453-6.567-.75-8.95-3.121.973-1.078 2.723-1.914 3.692-3.422 1.102.012 3.203 1.152 4.129 1.664"></path><path fill-rule="evenodd" fill="#f4d4d8" d="M69.496 106.16c.816 1.684 1.016 3.309 1.129 4.879.105 1.453-6.567-.75-8.95-3.121.028-.031.06-.063.087-.094 2.773 2.09 8.093 3.773 8.172 2.457.082-1.43-.06-2.848-.684-4.254l.246.133"></path><path fill-rule="evenodd" fill="#667383" d="M32.484 1.836c2.606-1.84 12.809 1.476 16.387 8.457-3.902 3.703-7.89 7.004-11.793 10.707-2.824.363-6.867-3.012-7.273-4.7-.965-4.023 1.117-13.362 2.68-14.464"></path><path fill-rule="evenodd" fill="#aeb9c2" d="M32.75 2.152C35.293.355 45.578 3.86 48.621 10.773c-3.813 3.618-7.527 7.106-11.34 10.723-2.285-.32-7-3.714-7.262-5.394-.633-4.066 1.203-12.871 2.73-13.95"></path><path fill-rule="evenodd" fill="#ccd6e2" d="M46.402 7.813a15.672 15.672 0 00-1.418-1.418C43.015 4.66 40.492 3.264 37.98 2.5c-1.254-.379-3.906-.973-5.086-.14-.55.39-1.094 1.992-1.293 2.613a5.82 5.82 0 01-.062.203c.261-.735.75-1.965 1.246-2.301 1.226-.828 4-.238 5.308.14 2.63.766 5.266 2.165 7.325 3.895.34.29.668.586.984.902"></path><path fill-rule="evenodd" fill="#95a5b1" d="M38.711 20.141c-.477.45-.953.902-1.43 1.355-2.285-.32-7-3.714-7.261-5.394-.418-2.695.246-7.465 1.183-10.691-.64 2.965-.996 6.469-.664 8.629.43 2.812 4.238 5.36 6.52 5.68.308.25 1.351.203 1.652.421"></path><path fill-rule="evenodd" fill="#667383" d="M36.863 17.039c-2.394 1.738-4.125 3.672-4.984 6.668-2.782-.305-6.094 2.559-6.18 4.223.168.246.508.386.918.379-.73.925-1.086 2.027-.922 2.914.355.226.902.133 1.223-.07-.739 4 4.402 13.8 12.578 17.257-9.29-5.71-13.777-14.875-10.746-20.535.773-1.672 4.394-1.324 6.922 1.118 2.078-2.536 1.953-4.375 4.035-6.91-.95-1.68-1.895-3.364-2.844-5.044"></path><path fill-rule="evenodd" fill="#667383" d="M41.629 11.242c1.8-1.664 5.195-2.43 7.281-2.277-1.015-.414-1.387-.625-1.344-1.516.418-.617 2.188-.824 3.106-.277-1.055-1.223-1.137-2.063-.856-3.114 1.094-.238 8.899 6.47 12.676 7.454 3.059 4.503 8.364 9.402 11.422 13.906.04 2.03-.015 4.222.485 6.253-8.883 1.149-19.043 1.817-27.926 2.97l-13.555-8.739c3.02-4.77 5.695-9.887 8.71-14.66"></path><path fill-rule="evenodd" fill="#aeb9c2" d="M41.973 11.59c1.98-1.887 5.691-2.496 8.535-2.188-1.094-.648-2.883-1.3-2.941-1.953 1.578-.496 2.867-.308 4.387.922-1.098-1.324-2.137-2.761-2.137-4.312 2.633 1.82 7.457 6.383 13.438 8.09 3.058 4.503 7.129 8.445 10.188 12.949.039 2.03-.016 4.062.484 6.093-8.883 1.149-18.57 2.297-27.453 3.45-4.52-2.915-9.039-5.829-13.555-8.739 3.02-4.77 6.035-9.543 9.055-14.312"></path><path fill-rule="evenodd" fill="#667383" d="M66.91 17.082c1.309-5.863 6.328-8.336 8.16-8.516 2.676-.265 11.5 2.067 15.363 6.196 1.73 1.851-3.387 11.348-8.234 13.645-2.406 1.136-5.848 1.168-9.098.05-.629-.335-.238-.535-.32-1.32-.551-4.133-3.23-4.375-5.871-10.055"></path><path fill-rule="evenodd" fill="#aeb9c2" d="M65.672 22.16c.926-8.574 6.992-13.012 9.516-13.262 2.59-.254 11.516 2.32 14.84 6.066 1.504 1.692-3.29 10.602-7.743 12.88-3.03 1.55-7.968 1.363-12.395-.895-2.335-.082-3.636-2.012-4.218-4.79"></path><path fill-rule="evenodd" fill="#667383" d="M66.234 14.348c1.441 1.156 2.394 2.738 2.25 3.875-.414-1.086-1.254-2.242-2.559-3.313l.309-.562"></path><path fill-rule="evenodd" fill="#ccd6e2" d="M85.836 12.238a27.462 27.462 0 00-1.871-.887 32.417 32.417 0 00-5.14-1.719c-1.005-.246-2.579-.582-3.61-.48-.77.078-1.668.531-2.313.934-1.07.668-2.047 1.546-2.879 2.492-.246.277-.48.562-.703.855.07-.078.141-.156.215-.234.899-.961 1.95-1.86 3.106-2.547.699-.414 1.664-.887 2.496-.977 1.113-.12 2.812.188 3.894.414 1.883.395 3.77.958 5.547 1.637.406.153.828.324 1.258.512"></path><path fill-rule="evenodd" fill="#667383" d="M68.238 24.289c.664-5.387 18.273-10.594 21.504-7.984.723 1.422-3.809 8.254-7.57 10.336-4.02 2.218-7.535 1.52-11.145-.004 2.594.582 5.035-1.715 5.047-3.399.015-1.953-1.301-2.312-2.922-2.113-2.086.254-4.164 2.125-4.914 3.164"></path><path fill-rule="evenodd" fill="#fabccb" d="M68.238 24.289c1.34-5.023 18.387-10.137 21.332-7.758.723 1.254-3.356 8.496-6.941 10.578-3.766 2.18-8.668 1.074-11.84-.527.89-.106 1.91-.43 2.414-1.246-.75.195-1.555.515-2.707-.059.144-.773 1.957-1.512 2.816-1.719-.703-.488-4.246-.105-5.074.73"></path><path fill-rule="evenodd" fill="#fef9f5" d="M39.496 48.41c4.344 2.094 8.426 2.426 13.215 2.21 10.367-1.616 18.328-6.757 19.203-14.753-14.43-2.898-35.359-11.551-43.297-8.695-2.527 5.093-.32 14.328 10.879 21.238"></path><path fill-rule="evenodd" fill="#f5ebe4" d="M40.977 49.059c4.027 1.379 7.492 1.754 11.734 1.563 11.625-.989 18.383-6.731 19.203-14.755-.59-.12-1.191-.25-1.8-.386-1.005 7.863-10.622 13.742-17.728 14.87-2.562.407-8.215-.331-11.41-1.292"></path><path fill-rule="evenodd" fill="#f5ebe4" d="M59.406 34.031c-4.617 1.191-6.496 7.602-9.223 11.637-1.172 1.734-7.164 2.656-7.945-.113 0-1.442-1.445-6.285-5.023-8.836 6.441-.86 17.133-4.774 22.19-2.688"></path><path fill-rule="evenodd" fill="#8a7b6a" d="M58.691 33.477c-4.258 2.66-6.176 7.762-8.906 11.797-1.172 1.734-6.844 2.934-7.625.16-.004-1.437-.61-6.203-3.91-8.953 6.441-.86 14-2.144 20.44-3.004"></path><path fill-rule="evenodd" fill="#371316" d="M58.539 33.547c-4.258 2.66-6.309 7.41-9.035 11.445-1.176 1.734-6.469 2.84-7.344.441.563-1.625-.61-6.578-3.25-9.046 6.438-.86 13.188-1.981 19.629-2.84"></path><path fill-rule="evenodd" fill="#f15089" d="M47.227 46.426c-1.184.387-2.563.523-3.602.23-.515-1.53.399-3.75 1.786-4.648.625-.402 1.765-.64 2.543-.305-1.196.887-1.578 2.29-1.489 2.942l.762 1.781"></path><path fill-rule="evenodd" fill="#f15089" d="M51.828 41.281c-.766 1.25-1.516 2.512-2.324 3.71-.461.68-1.559 1.263-2.774 1.579-1.37.191-1.293-.879-.886-1.945.941-2.364 3.308-3.711 5.984-3.344"></path><path fill-rule="evenodd" fill="#aeb9c2" d="M36.863 17.039c-2.05 1.91-3.727 4.121-4.856 6.77-3.117-.047-5.91 2.793-6.308 4.12.504.286 1.105.126 1.734-.062-.918.762-1.738 2.469-1.738 3.356.66-.051 1.043-.168 1.48-.536-1.019 4.305 4.922 14.098 12.32 17.723C30.207 42.7 25.72 33.535 28.75 27.875c.773-1.671 4.394-1.324 6.921 1.118 2.079-2.536 1.954-4.375 4.036-6.91-.95-1.68-1.895-3.364-2.844-5.044"></path><path fill-rule="evenodd" fill="#8a7b6a" d="M37.145 24.41c-2.988.625-5.21 3.754-5.063 7.063.098 2.175 1.407 4.546 4.579 6.269 1.707.926 3.828 1.664 6.03 1.758 5.946.25 12.7-1.711 15.454-5.926-.238-1.227-1.274-2.086-2.281-3.176-1.657.25-4.473.25-5.926-1.375-4.328-3.375-8.621-5.402-12.793-4.613"></path><path fill-rule="evenodd" fill="#667383" d="M36.574 17.578c-.844-3.742.277-9.219 2.215-9.613 1.203-.246 4.168 2.043 4.203 4.488-2.754.527-4.715 2.578-6.418 5.125"></path><path fill-rule="evenodd" fill="#aeb9c2" d="M36.574 17.578c-.34-3.816.535-8.719 2.477-9.09 1.093-.21 3.418 1.934 3.941 3.965-2.14 1.71-4.277 3.418-6.418 5.125"></path><path fill-rule="evenodd" fill="#667383" d="M38.938 18.863c1.582-2.426 2.414-5.43 1.96-5.75-.831-.586-4.253 2.195-5.995 7.438.14.773.328 2.164.488 3.484 1.29-.79 2.258-3.457 3.547-5.172"></path><path fill-rule="evenodd" fill="#fff" d="M38.84 19.082c1.176-1.988 2.094-5.11 1.785-5.375-.742-.637-4.48 3.012-5.777 6.898-.219.657-.453 2.563.512 3.43 1.23-.762 2.25-3.3 3.48-4.953"></path><path fill-rule="evenodd" fill="#0f0e0d" d="M39.008 17.914c.172.066.2.863-.266 1.906-.574 1.29-1.789 3.692-2.53 4.098-.415-.05-.274-.223-.688-.274-.364-2.269 2.664-6.043 3.484-5.73"></path><path fill-rule="evenodd" fill="#667383" d="M59.199 11.957c3.266 2.055 6.113 4.977 5.633 8.832 2.672-1.184 3.387-7.14 2.746-8.914-.508-1.41-6.043-1.68-8.379.082"></path><path fill-rule="evenodd" fill="#aeb9c2" d="M59.184 11.957c1.938 2.875 4.035 6.008 5.61 8.953 2.081-1.836 2.89-6.918 2.25-8.691-.508-1.41-5.149-1.395-7.86-.262"></path><path fill-rule="evenodd" fill="#667383" d="M62.871 15.164c2.031 2.285-1.082 12.594-6.25 14.289-2.953 1.547-5.68-1.953-5-5.055 1.602-6.722 9.469-11.238 11.25-9.234"></path><path fill-rule="evenodd" fill="#fff" d="M62.328 15.598c1.945 2.219-1.559 13.09-5.89 14.352-2.852 1.496-5.669-2.117-5.016-5.113 1.547-6.485 9.375-10.984 10.906-9.239"></path><path fill-rule="evenodd" fill="#0f0e0d" d="M59.602 20.469c1.504-.184 1.156 3.125.219 5.512-.676 1.722-2.512 3.976-3.75 4.187-1.434-.394-1.38-2.504-.922-4.054 1.098-3.711 3.176-5.493 4.453-5.645"></path><path fill-rule="evenodd" fill="#fef9f5" d="M37.293 24.59c-3.43.617-5.18 4.176-4.973 6.969.184 2.48 2.43 6.11 8.668 7.426 4.43.937 13.254-.676 16.81-5.13-.235-1.202-.91-2.23-1.9-3.304-1.671-.352-4.483-.266-5.823-1.352-4.778-3.37-8.676-5.347-12.781-4.609"></path><path fill-rule="evenodd" fill="#f5ebe4" d="M32.676 33.109c.855 2.254 3.29 4.816 8.313 5.875 4.43.938 13.406-.64 16.96-5.094-.007-.031-.199-.113-.207-.14-4.078 3.796-13.074 5.156-17.203 4.285-4.328-.914-6.734-2.942-7.863-4.926"></path><path fill-rule="evenodd" fill="#667383" d="M63.324 26.355c-2.992-.332-7.41 2.066-9.633 4.266-2.93 2.582.727 3.742 2.66 3.562 3.114-.293 7.73.621 10.578 1.973 1.168.652 2.098 1.449 2.614 2.383.511 6.453-9.168 11.195-16.32 12.102 9.464-.551 18.273-4.746 20.168-10.906.21.84.71.695 1.043.347.847-.617 2.113-5.117-.192-6.867.762.637 1.926 1.05 2.59.637-.05-1.672-2.41-4.957-5.8-5.848-2.223-.246-5.34-.734-7.708-1.648"></path><path fill-rule="evenodd" fill="#b02a33" d="M35.277 28.367c2.383.84 6.102-1.39 6.094-2.7-.004-1.277-1.977-1.952-3.957-2.26-1.668-.263-3.387.097-3.856 1.026-.707 1.41.364 3.457 1.72 3.934"></path><path fill-rule="evenodd" fill="#aeb9c2" d="M63.324 26.355c-2.98.398-7.871 2.574-10.012 4.691-2.426 2.399 1.531 2.95 2.805 2.84 3.683-.312 6.933.469 9.566 1.613 1.856.805 3.223 1.973 3.86 3.04-1.934 7.55-11.759 11.172-16.735 12.129 11.395-1.286 20.578-6.54 20.457-13.22.133 1.188.715 3.13 1.07 2.758.7-1.039 1.622-5.808-.98-7.511 1.203.297 2.54 1.129 3.477 1.156-1.383-3.348-6.742-8.406-13.508-7.496"></path><path fill-rule="evenodd" fill="#ccd6e2" d="M67.77 26.797a11.82 11.82 0 00-4.375-.21c-2.012.28-4.898 1.382-7.203 2.726 2.48-1.348 5.66-2.301 7.726-2.59a12.23 12.23 0 013.852.074"></path><path fill-rule="evenodd" fill="#d53b49" d="M35.344 28.199c2.016.754 5.707-1.36 5.7-2.547-.005-1.164-1.927-1.809-3.805-2.094-1.586-.234-3.235.082-3.665.938-.488.984.496 3.226 1.77 3.703"></path><path fill-rule="evenodd" fill="#f26579" d="M39.797 24.465c-.867-.418-2.043-.633-2.59-.715-.703-.105-1.496-.11-2.191.055-.45.105-1.047.332-1.266.777-.297.594.059 1.598.352 2.133.027.05.058.102.086.152-.266-.605-.492-1.453-.227-1.992.238-.48.883-.726 1.371-.84.754-.18 1.606-.172 2.371-.058.45.066 1.301.218 2.094.488"></path><path fill-rule="evenodd" fill="#f14278" d="M51.633 41.605c-.7 1.145-1.39 2.293-2.129 3.387-.46.68-1.558 1.261-2.773 1.578-.606.082-.926.148-1.063-.149.172.067.457-.07.711-.199 1.215-.316 2.352-.918 2.867-1.558.774-.957 1.664-2.012 2.387-3.06"></path><path fill-rule="evenodd" fill="#f14278" d="M47.227 46.426c-1.184.387-2.563.523-3.602.23-.175-.527-.183-1.136-.062-1.746-.172 2.098 2.012 1.532 3.484 1.102l.18.414"></path><path fill-rule="evenodd" fill="#f597a3" d="M68.238 24.289c1.34-5.023 18.387-10.137 21.332-7.758a.684.684 0 01.078.278c-2.52-1.383-18.223 3.34-21.289 7.375-.043.035-.086.07-.121.105"></path><path fill-rule="evenodd" fill="#8e9dab" d="M56.117 33.887c3.684-.313 6.934.469 9.566 1.613 1.856.805 3.223 1.973 3.86 3.04-.637-1.165-2.317-2.727-4.145-3.575-2.61-1.199-5.793-1.726-9.28-1.078"></path><path fill-rule="evenodd" fill="#fff" d="M59.609 19.348c-.344-.379-.922-.078-1.285.672-.367.75-.387 1.668-.043 2.047.344.383.922.082 1.289-.668.367-.754.383-1.672.039-2.051M38.762 16.902c-.184-.293-.566-.121-.855.379s-.372 1.14-.188 1.434c.18.289.563.12.852-.38.289-.503.375-1.144.191-1.433"></path><path fill-rule="evenodd" fill="#bc2d38" d="M35.344 28.199c2.016.754 5.707-1.36 5.7-2.547 0-.117-.02-.226-.055-.332-.77 1.191-3.977 2.727-5.836 2.066-.68-.242-1.282-.94-1.641-1.699.215 1.02.953 2.184 1.832 2.512"></path></svg>