<svg xmlns="http://www.w3.org/2000/svg" viewBox="0 0 112.5 112.5" version="1.2" height="150" width="150"><g fill-rule="evenodd"><path fill="#b4a18e" d="M41.035 71.535c-1.34 5.106-1.047 15.023 7.918 14.406.82-2.234.3-4.824 1.121-7.055-2.883-2.058-6.156-5.293-9.039-7.351"></path><path fill="#f5ebe4" d="M41.023 70.84c-.887 5.734-.969 15.383 8.066 14.57.825-2.234.153-4.988.973-7.223-2.883-2.058-6.156-5.289-9.039-7.347"></path><path fill="#b4a18e" d="M39.809 70.164c.988.969 1.844 3.516 2.277 4.664 1.098 2.934.778 6.176 7.074 9.203 3.188-2.992.106-9.476-.19-11.957-2.372-1.523-6.106-2.414-9.161-1.91"></path><path fill="#f5ebe4" d="M39.809 70.164c1 1.078 1.629 1.941 2.156 3.723.543 1.824.156 9.039 6.488 11.508 5.91-1.414 4.926-10.61.516-13.32-2.371-1.524-6.105-2.414-9.16-1.91"></path><path fill="#b4a18e" d="M45.594 70.164c2.644-1.176 7.207.316 9.238 3.176-.129.976-.156 1.957-.285 2.937-4.433-1.293-5.523-2.78-8.953-6.113"></path><path fill="#fef9f5" d="M45.375 70c3.293-.828 7.184 1.25 9.555 3.344-.13.976-.254 1.953-.383 2.933-1.29-.379-2.582-.754-3.871-1.132-1.77-1.715-3.535-3.43-5.301-5.145"></path><path fill="#b4a18e" d="M49.02 70.652c-2.938-1.68-7.484-1.875-9.21-.488 2.733.11 6.901 3.71 7.983 6.199-.574-.184-1.581-.05-2.046-.473.754 3.164 1.898 4.867 4.488 5.274-.402-4.645.64-5.664-1.215-10.512"></path><path fill="#fef9f5" d="M49.02 70.652c-3.453-1.367-7.25-1.5-9.21-.488 2.331.336 5.343 2.918 6.421 5.406-.57-.188-1.348-.711-1.813-1.129.754 3.16 3.399 7.316 5.985 7.719 1.418-2.246 2.98-5.055 4.394-7.301-.816-1.523-3.464-3.414-5.777-4.207"></path><path fill="#b4a18e" d="M88.953 95.754c2.55-2.516 7.285-3.773 8.168-3.379 1.5.582 5.523 4.985 5.762 7.195.101.954-.575 2.352-1.785 2.883-4.04-.777-8.481-1.844-12.52-2.62 1.847-1.638 1.218-2.321.375-4.079"></path><path fill="#fef9f5" d="M88.863 95.828c1.637-1.246 6.566-3.668 8.094-3.113 1.512.55 5.367 4.851 5.605 7.062.102.953-.98 2.125-1.761 2.446-4.04-.782-8.184-1.614-12.223-2.391l-8.434.316c.785-.742 1.566-1.484 2.352-2.226 2.597-.871 3.77-1.227 6.367-2.094"></path><path fill="#f5ebe4" d="M102.39 99.074c.09.25.148.488.172.703.101.953-.98 2.125-1.762 2.445-1.098-.214-2.207-.43-3.316-.648 1.097-.234 2.156-.324 3.14-.133.762-.312 1.809-1.433 1.766-2.367"></path><path fill="#b4a18e" d="M99.199 95.691c1.047 1.914 2.695 4.992 2.453 6.313-.258 1.382-2.906 1.003-4.05.796-1.489-5.265-.52-5.968 1.597-7.109"></path><path fill="#fef9f5" d="M99.199 95.691c.816 2.23 2.457 5.242 2.082 6.531-.203.692-2.777.387-3.95.266l-2.027-7.172 3.895.375"></path><path fill="#f5ebe4" d="M101.34 101.76c0 .172-.016.328-.055.465-.203.691-2.777.387-3.949.265l-.277-.984c.172.094.351.191.539.29 1.012.105 3.066.347 3.742-.036"></path><path fill="#b4a18e" d="M77.562 100.78c3.457.492 7.336.93 10.598.145 4.73 2.273 10.305 2.601 10.273 1.335-.04-1.632-.5-4.398-1.844-5.78-3.187 1.265-17.488 2.902-19.027 4.3"></path><path fill="#fef9f5" d="M78.078 100.75c3.402.29 6.871.629 10.133-.16 4.012 1.875 9.75 2.66 9.82 1.598.11-1.63-.61-4.16-1.441-5.715-6.344 1.511-13.203 2.355-19.496 3.3.226.395.758.583.984.977"></path><path fill="#f5ebe4" d="M78.078 100.75c3.402.29 6.871.629 10.133-.16 4.012 1.875 9.75 2.66 9.82 1.598.008-.125.012-.254.012-.387-1.152.586-6.031-.11-9.57-1.684-3.262.86-6.73.594-10.133.383a.736.736 0 01-.367.106c.039.046.074.093.105.144"></path><path fill="#7394ae" d="M86.922 68.926c2.2 4.207 5.977 7.14 7.914 11.883 1.117 2.734-.629 11.781-5.336 14.531-8.816 2.363-6.586-16.879-5.426-26.887 1.215-.059 1.633.531 2.848.473"></path><path fill="#c6d8e7" d="M87.078 69.234c1.734 4.285 5.469 6.906 7.406 11.645 1.156 2.828-.71 10.727-5.203 14.711-3.672 1.582-4.437 4.035-8.629 4.754 1.184-10.215 2.238-21.68 3.422-31.891 1.215-.059 1.79.84 3.004.781"></path><path fill="#7394ae" d="M84.707 53.105c2.438 3.422 4.82 6.852 6.578 9.52.926 1.402-1.25 7.992-7.148 9.238-2.043-6.754-1.774-12.484.57-18.758"></path><path fill="#c6d8e7" d="M83.41 51.891c2.672 3.71 5.586 7.672 7.617 10.938.809 1.297-1.215 7.027-6.918 8.957l-4.812.105-1.25-4.496c.554-3.902 1.113-7.804 1.668-11.703 1.207-2.039 2.488-1.765 3.695-3.8"></path><path fill="#a7bfd5" d="M91.121 63.031c.523 1.602-1.566 6.91-7.012 8.754l-2.277.05c.797-.452 1.566-.831 2.207-.847 4.738-1.605 6.934-5.828 7.082-7.957"></path><path fill="#b4a18e" d="M83.461 60.691c.871 9.352 6.578 12.957 7.356 22.027.378 4.46-3.864 15.496-12.203 19.371-3.938 1.832-13.208 2.856-19.06 1.121.649-13.172 1.891-26.62 2.54-39.793 7.445-.894 13.922-1.832 21.367-2.727"></path><path fill="#fef9f5" d="M83.082 60.117c.98 9.348 6.441 13.75 7.336 22.344.445 4.297-3.817 15.547-12.45 19.383-3.808 1.691-13.542 2.785-18.608.75.652-13.172 1.308-26.344 1.96-39.516 7.516-.895 14.243-2.066 21.763-2.96"></path><path fill="#f5ebe4" d="M87.562 73.211c1.309 2.797 2.48 5.656 2.856 9.25.445 4.297-3.817 15.547-12.45 19.383-3.808 1.691-13.542 2.785-18.608.75l7.714-18.352c-5.09 16.547 6.48 16.863 11.191 15.035 4.817-1.871 7.618-5.383 9.493-9.484 1.554-3.403 2.308-5.598 2.109-7.547-.313-3.008-1.324-6.656-2.367-9.028l.062-.007"></path><path fill="#c6d8e7" d="M86.621 61.98l-3.777-1.828-2.594 5.262 3.45 1.109 2.921-4.543"></path><path fill="#b4a18e" d="M77.57 41.293c1.266 2.168 4.867 3.957 6.996 5.293-.293.504-.86.688-1.492.59 1.613.773 2.418 1.87 2.871 3.183-.328.278-.695.215-1.29-.109.84 1.16 1.391 3.371 1.36 4.98-.05 3.211-2 8.294-4.61 10.11-11.507-5.723-9.48-23-3.835-24.047"></path><path fill="#fef9f5" d="M77.668 41.391c1.004 2.559 4.563 4.207 6.898 5.195-.648.41-1.53.367-2.261.364 1.46.886 2.789 2.05 3.64 3.41-.351.09-1.39-.371-2.078-.809 1.07.926 1.844 3.785 1.817 5.395-.055 3.21-1.528 7.96-4.094 10.539-2.453 2.468-8.067 3.77-11.273 3.855-1.953.098-3.906.192-5.86.29-2.183-8.903-4.367-17.802-6.55-26.7 6.78-.172 16.52-6.761 19.762-1.539"></path><path fill="#7394ae" d="M59.367 44.574c.227 9.57 3.938 24.359 5.156 34.695-4.918-1.336-10.602-5.648-15.523-6.984 5.23-3.274 6.653-22.176 5.844-24.484-.84-2.418-1.875-4.118-3.164-5.153 2.332.73 5.355 1.196 7.687 1.926"></path><path fill="#c6d8e7" d="M65.914 43.719c-2.012 1.398-3.27 4.129-2.492 5.832 4.148 2.762 5.219 7.574 5.199 11.398-.031 6.379-4.332 12.051-3.59 18.32-4.922-1.336-10.605-5.648-15.523-6.984 5.227-3.274 6.649-22.176 5.844-24.484-.84-2.418-1.879-4.118-3.164-5.153 2.332.73 11.395.34 13.727 1.07"></path><path fill="#7394ae" d="M64.891 76.547c3.914 3.746 3.305 13.773 2.594 16.758-.715 2.98-4.195 9.36-6.223 10.898-3.004 2.273-7.27 3.707-9.683 2.828-1.946-4.64-2.211-11.082-9.567-5.894-3.078-3.746-1.883-16.297-.805-18.86 2.04-4.827 6.16-9.5 10.617-11.905.575 4.968 6.274 10.293 13.066 6.175"></path><path fill="#c6d8e7" d="M65.066 76.027c3.29 4.156 2.894 14.066 2.18 17.051-.715 2.98-4.278 9.387-6.309 10.926-3 2.273-6.582 2.957-8.582 2.902-1.344-.187-8.308-4.578-10.344-5.77-2.621-4.316-1.469-16.19-.39-18.753 2.039-4.832 5.906-8.707 10.202-12.012 3.422-2.633 9.68 1.156 13.242 5.656"></path><path fill="#7394ae" d="M59.781 55.816c.355 1.898.3 5.941 2.434 8.758.984.957 2.582 1.719 4.187 2.492-.203 2.02 1.754 5.055 1.55 7.07-4.327 1.059-10.308-1.23-11.886-2.398-4.977-3.672-5.438-13.395-2.793-19.406.871-1.98 1.98-3.715 3.43-3.363-.676 3.394.55 9.398 3.078 6.847"></path><path fill="#c6d8e7" d="M59.781 55.816c-.027 3.488.363 6.719 2.246 9.035 1.313 1.063 2.625 2.13 3.938 3.196-.204 2.015 1.793 3.968 1.593 5.984-4.183.707-10.004-1.574-11.516-2.832-5.05-4.191-5.285-15.184-1.07-21.004 2.754-3.809 4.984 1.867 4.809 5.621"></path><path fill="#a7bfd5" d="M67.531 73.238c.04.262.05.527.027.793-4.183.707-10.004-1.574-11.516-2.832-1.242-1.031-2.195-2.477-2.86-4.152.642 1.375 1.49 2.562 2.556 3.445 1.507 1.254 7.332 3.535 11.512 2.828.097-.027.191-.055.28-.082"></path><path fill="#f1f9fd" d="M41.488 83.875c.102-.457.223-.96.398-1.383 2.055-4.867 5.985-8.715 10.117-11.895-3.882 3.297-8.332 7.75-10.516 13.277"></path><path fill="#a7bfd5" d="M67.582 84.039c.352 3.703.055 7.406-.336 9.04-.715 2.98-4.277 9.386-6.309 10.925-3 2.274-6.351 3.055-8.351 3-1.73.133-6.649-.984-6.215-4.617 1.668 4.363 9.8 4.105 14.168.547 2.965-2.418 6.012-7.82 6.398-10.523.477-3.29.47-6.094.645-8.371"></path><path fill="#b4a18e" d="M41.566 100.38c-2.781.613-6.336 5.637-6.691 7.387-.332 1.61.605 2.36 1.953 2.773 2.097-3.223 4.144-6.719 6.238-9.941-.707-.047-.793-.172-1.5-.22"></path><path fill="#fef9f5" d="M41.945 100.51c-1.758-.602-5.856 4.656-6.73 7.258-.368 1.094.523 2.324 1.906 2.355 1.367-2.101 8.078-9.39 4.824-9.613"></path><path fill="#f5ebe4" d="M39.27 101.86c-1.703 1.621-3.508 4.281-4.055 5.906-.367 1.094.524 2.324 1.906 2.356.083-.121.18-.266.293-.418-1.312-.102-2.14-1.29-1.785-2.352.504-1.492 2.067-3.863 3.64-5.492"></path><path fill="#b4a18e" d="M48.578 102.91c-1.824-2.137-5.348-2.926-6.797-2.527.012 1.054-.547.511-1.297 1.476-1.879 1.786-3.598 5.551-4.094 8.243-.351 1.25 4.387 1.855 6.625 1.101-.937-3.781 1.22-6.437 5.563-8.293"></path><path fill="#fef9f5" d="M48.578 102.91c-2.078-1.746-5.691-2.59-6.707-2.563-1.79.047-4.148 5.942-5.04 9.633-.253 1.059 3.9 1.57 6.142.82 1.867-2.757 3.738-5.132 5.605-7.89"></path><path fill="#f5ebe4" d="M39.684 102.52c-1.191 2.063-2.3 5.184-2.852 7.46-.254 1.06 3.899 1.571 6.141.821.098-.148.195-.293.293-.433-2.277.656-6.184.144-5.934-.883.504-2.086 1.368-4.902 2.352-6.965"></path><path fill="#b4a18e" d="M43.617 104.9c-1.344 1.879-1.652 4.172-1.84 6.05-.105 1.028 2.95.99 5.93-.355 2.82-1.27 5.652-2.949 5.3-3.593-3.84-.325-8.484-1.75-9.39-2.102"></path><path fill="#fef9f5" d="M43.617 104.9c-.977 2.02-1.219 3.965-1.355 5.848-.126 1.746 7.886-.899 10.745-3.742-1.167-1.293-3.265-2.293-4.43-4.102-1.32.016-3.847 1.383-4.96 1.996"></path><path fill="#f5ebe4" d="M43.617 104.9c-.977 2.02-1.219 3.965-1.355 5.848-.126 1.746 7.886-.899 10.745-3.742-.03-.04-.066-.075-.101-.114-3.332 2.508-9.723 4.528-9.813 2.946-.097-1.711.07-3.41.82-5.098l-.296.16"></path><path fill="#7394ae" d="M67.203 5.715c-6.64.722-21.914-4.902-23.32-5.059C41.59.398 28.192 2.437 20.641 2.391c-.184 2.882 8.098 7.492 18.027 9.578 6.773-.285 13.922-1.043 20.695-1.328 2.582-1.688 5.258-3.239 7.84-4.926"></path><path fill="#c6d8e7" d="M67.055 5.941c-6.64.723-21.82-4.77-23.227-4.925-2.293-.254-15.215 1.718-22.766 1.668-.156 2.578 8.84 7.218 17.93 9.172 6.773-.286 13.547-.57 20.32-.852 2.578-1.688 5.16-3.375 7.742-5.063"></path><path fill="#a7bfd5" d="M21.07 2.89c.309 2.614 9.07 7.067 17.922 8.965 6.773-.285 13.547-.57 20.32-.851l1.523-1c-6.796.242-16.363.418-22.438.672C30.772 9.039 23.213 5.508 21.07 2.89"></path><path fill="#f1f9fd" d="M22.312 2.945c2.559-.043 5.148-.25 7.68-.476 2.898-.258 5.789-.574 8.683-.864 1.078-.105 2.157-.21 3.239-.285.57-.039 1.316-.101 1.886-.035.157.016.344.07.496.113.317.082.63.176.942.266.965.29 1.926.586 2.89.879 2.723.824 5.453 1.613 8.22 2.281l.359.09a76.615 76.615 0 01-8.739-2.05c-.965-.294-1.926-.59-2.89-.876-.313-.094-.625-.187-.942-.27-.152-.042-.343-.097-.5-.113-.566-.066-1.312-.004-1.886.036-1.079.074-2.16.18-3.235.289-2.894.285-5.785.601-8.683.859-2.301.207-5.102.258-7.52.156"></path><path fill="#7394ae" d="M77.215 12.727c2.352 1.707 4.05 3.602 4.894 6.54 2.731-.302 5.985 2.507 6.067 4.14-.16.242-.496.379-.899.37.72.907 1.067 1.99.907 2.86-.352.223-.887.13-1.203-.07.726 3.922-4.633 13.375-12.352 16.922 9.12-5.598 13.53-14.586 10.555-20.137-.762-1.637-4.317-1.297-6.797 1.098-2.043-2.485-1.922-4.293-3.965-6.778l2.793-4.945"></path><path fill="#7394ae" d="M72.535 7.043c-1.77-1.629-5.102-2.379-7.152-2.234 1-.403 1.36-.61 1.32-1.485-.41-.605-2.148-.808-3.05-.273 1.038-1.2 1.113-2.02.839-3.051-2.07 1.238-7.375 6.133-12.965 6.582-6.04 2.344-9.766 8.867-10.453 13.062-.41 2.48-.113 4.957-.723 7.43 8.723 1.129 18.703 1.785 27.426 2.91l13.312-8.567c-2.964-4.68-5.59-9.695-8.554-14.375"></path><path fill="#c6d8e7" d="M72.195 7.383c-1.945-1.848-5.586-2.446-8.383-2.14 1.078-.641 2.832-1.278 2.89-1.919-1.55-.488-2.812-.3-4.304.903C63.472 2.93 64.492 1.52 64.492 0c-2.137 2.242-8.024 6.664-13.375 6.812-5.164 2.176-8.992 8.926-9.719 12.938-.41 2.266-.02 4.575-.582 6.856 8.723 1.125 18.238 2.254 26.961 3.379l13.312-8.567c-2.965-4.68-5.93-9.355-8.894-14.035"></path><path fill="#7394ae" d="M10.875 16.445c-1.82-.316.695 3.258 3.004 4.14 5.066 1.938 14.828 1.61 21.484-.988 2.89-1.125 6.09-1.933 8.602-3.293-8.184-.843-26.083 1.102-33.09.14"></path><path fill="#c6d8e7" d="M11.055 16.742c-1.621-.48.91 2.77 2.856 3.531 5.05 1.98 15.237 1.414 21.895-1.183 2.886-1.13 6.308-2.157 9.55-3.149 5.68-2.875-.789-1.719-.875-2.722-6.183.187-12.363.378-18.547.566-4.77 1.441-10.64 3.535-14.879 2.957"></path><path fill="#fabccb" d="M11.965 17.551c-.941-.297 1.07 1.695 2.285 2.16 5.067 1.938 15.238 1.41 21.895-1.187 2.887-1.125 6.309-2.153 9.551-3.145-.082-1.004-.79-1.723-.875-2.723l-18.547.563c-4.77 1.445-9.54 2.887-14.309 4.332"></path><path fill="#f597a3" d="M11.965 17.551c-.082-.027-.14-.035-.18-.027 1.118 1.129 3.465 1.464 4.75 1.187 4.516-.969 10.832-2.254 13.117-2.656 3.051-.535 10.56-.883 14.121-1.008.735.215 1.36.32 1.895.34l.027-.008c-.082-1.004-.789-1.723-.875-2.723l-18.547.563-14.309 4.332"></path><path fill="#7394ae" d="M47.48 14.355c-.676 1.113-3.824 2.559-6.98 1.27.578-.29 1.933-.5 2.578-.684-3.563.125-10.105-.484-13.16.05-2.286.403-9.829 2.38-14.344 3.348-1.489.32-3.93-.289-4.7-1.894 1.325.043 3-.254 4.364-.856 6.836-3.015 18.05-8.527 19.727-9 1.34-.375 6.933-.336 12.44-.375 5.18-.039 10.208-.144 10.825-.058-5.223 2-10.11 5.152-10.75 8.199"></path><path fill="#c6d8e7" d="M49.066 13.387c-.68 1.117-3.5 3.168-8.68 2.262.66-.23 3.203-.348 3.684-.883-3.578-.035-10.988-.602-14.043-.063-2.398.418-10.516 2.575-14.918 3.48-.82.173-2.277-.116-3.238-.687-.829.196-1.184-.543-.817-.754 1.324.043 3-.253 4.363-.855 6.832-3.016 18.055-8.504 19.727-9 2.395-.71 13.992-.07 23.262-.754-2.796 2.785-6.543 4.469-9.34 7.254"></path><path fill="#f1f9fd" d="M11.203 17.016l-.02-.004a10.89 10.89 0 004.344-.879 396.43 396.43 0 007.41-3.39c2.614-1.22 5.22-2.45 7.832-3.66.954-.438 1.907-.88 2.868-1.298.488-.214 1.074-.488 1.586-.64.668-.2 1.683-.242 2.386-.274 1.36-.07 2.73-.082 4.09-.09 3.656-.027 7.313-.007 10.97-.105-1.438.192-9.61.395-11.536.41-1.86.012-4.379.106-6.172.637-1.512.45-3.207 1.352-4.637 2.012-2.37 1.093-4.789 2.25-7.171 3.316-3.711 1.656-8.985 4.375-11.95 3.965"></path><path fill="#fef9f5" d="M74.629 43.488c-4.266 2.055-8.273 2.379-12.977 2.168-10.184-1.586-18.004-6.629-18.863-14.469 6.144-7.621 18.59-1.695 25.465-4.512 8.84-3.617 14.805-7.457 17.059-4.011 2.484 4.996.313 14.047-10.684 20.824"></path><path fill="#b4a18e" d="M59.332 30.906c1.176.473 2.684 3.95 3.54 6.254.714 1.91 2.437 3.105 4.995 2.906.969-.078 2.184-.371 2.715-1.344-.457-1.562.914-4.03 1.86-5.344.175-1.304-.153-2.515.023-3.816-4.242.473-8.895.871-13.133 1.344"></path><path fill="#f5ebe4" d="M73.176 44.125c-3.957 1.352-7.36 1.719-11.523 1.531-11.418-.969-18.055-6.601-18.863-14.469a90.482 90.482 0 001.77-.375c.984 7.707 10.43 13.473 17.41 14.578 2.515.399 8.07-.324 11.207-1.265"></path><path fill="#c6d8e7" d="M77.215 12.727c2.016 1.875 3.66 4.043 4.766 6.64 3.066-.046 5.808 2.739 6.195 4.04-.492.277-1.082.125-1.7-.063.9.75 1.708 2.422 1.708 3.293-.649-.05-1.024-.164-1.453-.523 1 4.219-4.836 13.82-12.102 17.375 9.12-5.598 13.53-14.586 10.555-20.137-.762-1.637-4.317-1.297-6.797 1.097-2.043-2.484-1.922-4.293-3.965-6.777l2.793-4.945"></path><path fill="#7394ae" d="M77.5 13.258c.828-3.672-.273-9.04-2.176-9.43-1.183-.242-4.094 2.008-4.129 4.403 2.707.515 4.633 2.53 6.305 5.027"></path><path fill="#c6d8e7" d="M77.5 13.258c.332-3.742-.527-8.55-2.434-8.914-1.074-.207-3.355 1.894-3.87 3.887l6.304 5.027"></path><path fill="#7394ae" d="M75.176 14.516c-1.55-2.375-2.367-5.324-1.926-5.637.817-.574 4.18 2.153 5.89 7.293-.136.758-.323 2.121-.48 3.418-1.265-.777-2.218-3.394-3.484-5.074"></path><path fill="#fff" d="M75.273 14.734c-1.152-1.953-2.055-5.012-1.75-5.273.727-.621 4.394 2.953 5.672 6.765.215.64.445 2.512-.5 3.363-.914.77-2.211-3.238-3.422-4.855"></path><path fill="#0f0e0d" d="M75.109 13.586c-.168.063-.195.848.262 1.871.562 1.262 1.754 3.617 2.484 4.016.317.191.606.105.676-.266.355-2.227-2.617-5.926-3.422-5.621"></path><path fill="#7394ae" d="M55.277 7.746c-3.207 2.016-6 4.875-5.531 8.66-2.117-1.214-3.324-7-2.695-8.742.5-1.383 5.933-1.648 8.226.082"></path><path fill="#c6d8e7" d="M55.297 7.746c-1.906 2.816-3.965 5.89-5.512 8.777-2.047-1.8-2.84-6.78-2.21-8.523.5-1.379 5.058-1.367 7.722-.254"></path><path fill="#7394ae" d="M51.805 10.977c-1.996 2.238 1.23 12.559 6.008 13.922 2.898 1.52 5.574-1.91 4.91-4.953-1.574-6.59-9.172-10.934-10.918-8.969"></path><path fill="#fff" d="M52.207 11.312c-1.914 2.176 1.531 12.836 5.785 14.074 2.797 1.465 5.567-2.074 4.926-5.012-1.52-6.363-9.207-10.773-10.711-9.062"></path><path fill="#0f0e0d" d="M54.883 16.09c-1.473-.18-1.133 3.063-.215 5.406.664 1.688 2.465 3.899 3.684 4.106 1.41-.387 1.355-2.457.906-3.977-1.078-3.64-3.121-5.383-4.375-5.535"></path><path fill="#371316" d="M59.742 30.984c1.34.703 2.387 3.43 3.246 5.73.715 1.915 2.113 3.223 4.926 3.086.973-.046 2.101-.398 2.668-1.078-.774-.855.34-3.41 1.355-5.254l.528-3.906c-4.242.473-8.48.946-12.723 1.422"></path><path fill="#f15089" d="M62.344 35.035c.227.563.441 1.133.645 1.68.714 1.914 2.113 3.222 4.925 3.086l.168-.012c-.175-.852-.605-1.793-1.187-2.445-1.594-1.665-3.453-2.739-4.551-2.309"></path><path fill="#f15089" d="M66.715 39.766c.367.043.766.059 1.2.035a5.039 5.039 0 001.476-.297c.539-1.523-.899-3.058-2.152-3.73-.602-.324-1.243-.516-1.844-.086.73.668.976 1.137 1.195 1.691l.125 2.387"></path><path fill="#b0b0af" d="M76.52 29.504c-.176.918-.488 2.176-1.086 3.063-.348.511-3.7 1.796-4.348 1.269-.496-.406-.62-1.613-.765-2.394 1.293-1.094 2.683-1.563 3.98-2.657l2.22.72"></path><path fill="#fff" d="M76.34 29.262c-.16.914-.45 2.176-1.008 3.063-.324.507-3.422 1.831-4.035 1.3-.465-.402-.633-1.64-.773-2.425 1.214-1.094 2.515-1.563 3.734-2.657.695.239 1.387.48 2.082.72"></path><path fill="#b4a18e" d="M76.336 20.789c.563-.066 1.605.316 2.277 1.168 2.64 3.367.301 9.152-4.91 7.856-.043-2.739.258-5.52.211-8.254.883-.211 1.543-.559 2.422-.77"></path><path fill="#fef9f5" d="M76.555 20.93c.566-.066 1.32.055 1.957.934 2.535 3.515.34 8.539-4.394 7.785-.047-2.735-.157-5.356-.204-8.09.883-.211 1.762-.422 2.641-.629"></path><path fill="#f5ebe4" d="M79.574 25.078c.008 2.7-2.078 5.11-5.457 4.57l-.02-.87c2.532.202 4.926-.372 5.477-3.7"></path><path fill="#b4a18e" d="M75.938 27.527c-.734 3.684-5.113 5.781-9.043 5.676-2.883-.078-4.922-.696-6.312-1.356-1.489-.707-3.891-2.515-4.024-4.257 2.117.894 7.117-1.606 7.445-3.2 2.907-1.922 6.688-3.32 10.2-3.66-.157 2.55.12 5.184 1.734 6.797"></path><path fill="#fef9f5" d="M76.082 24.207c.371 1.152.266 1.992-.145 3.32-.921 2.957-4.89 5.492-8.824 5.418-2.312-.047-4.738-.539-6.586-1.39-1.629-.754-3.91-2.313-3.886-4.114 1.03-.754.757-1.109 1.789-1.863 2.8.906 4.375-.398 5.574-1.187 2.887-1.895 7.68-3.364 10.297-3.457.672.91 1.11 2.363 1.781 3.273"></path><path fill="#f5ebe4" d="M75.898 27.645c-.988 2.906-4.906 5.375-8.785 5.3-2.313-.046-4.739-.538-6.586-1.39-1.172-.543-2.688-1.504-3.43-2.676.84.778 1.961 1.41 2.887 1.813 1.96.851 4.535 1.348 6.992 1.39 3.703.067 7.445-1.921 8.922-4.437"></path><path fill="#991c3c" d="M76.855 23.836c-2.14.977-5.781-.777-5.887-1.992-.101-1.184 1.672-1.973 3.485-2.426 1.527-.383 3.152-.195 3.664.629.773 1.246-.047 3.23-1.262 3.789"></path><path fill="#d93a70" d="M76.781 23.684c-1.813.871-5.414-.781-5.512-1.883-.09-1.078 1.64-1.836 3.36-2.258 1.453-.351 3.007-.195 3.476.563.54.871-.187 3.031-1.324 3.578"></path><path fill="#f586b9" d="M72.328 20.598c.77-.46 1.844-.758 2.344-.879.644-.16 1.379-.226 2.039-.133.43.059 1 .223 1.242.614.324.523.082 1.484-.148 2.007-.02.047-.043.098-.067.145.196-.582.246-1.356-.05-1.832-.262-.426-.836-.598-1.297-.664-.715-.102-1.477.02-2.172.187-.414.102-1.176.239-1.89.555"></path><path fill="#c62d5e" d="M76.781 23.684c-1.813.871-5.414-.781-5.512-1.883a.934.934 0 01.028-.312c.812 1.039 3.922 2.195 5.59 1.426.609-.282 1.109-.977 1.382-1.707-.117.957-.703 2.101-1.488 2.476"></path><path fill="#7394ae" d="M51.227 21.863c2.938-.328 7.277 2.027 9.46 4.18 2.876 2.535-.71 3.672-2.612 3.496-3.059-.29-7.594.61-10.387 1.933-1.149.641-2.063 1.422-2.57 2.336-.5 6.328 9.003 10.977 16.026 11.867-9.293-.539-17.94-4.656-19.805-10.695-.203.825-.699.684-1.023.344-.832-.61-2.078-5.02.187-6.738-.746.629-1.89 1.031-2.543.629.051-1.64 2.368-4.864 5.696-5.739 2.183-.238 5.242-.714 7.57-1.613"></path><path fill="#c6d8e7" d="M51.227 21.863c2.926.39 7.73 2.523 9.836 4.602 2.379 2.347-1.508 2.89-2.758 2.785-3.617-.309-6.809.457-9.394 1.578-1.82.789-3.165 1.937-3.793 2.98 1.898 7.407 11.55 10.953 16.438 11.891-11.191-1.254-20.207-6.406-20.09-12.957-.133 1.164-.704 3.067-1.051 2.703-.688-1.019-1.594-5.695.96-7.363-1.179.29-2.495 1.102-3.413 1.133 1.355-3.285 6.62-8.242 13.266-7.352"></path><path fill="#f1f9fd" d="M46.859 22.293c1.39-.324 2.84-.41 4.3-.203 1.977.277 4.81 1.355 7.075 2.672-2.438-1.32-5.563-2.254-7.59-2.54a12.16 12.16 0 00-3.785.071"></path><path fill="#a7bfd5" d="M58.305 29.25c-3.617-.309-6.809.457-9.395 1.578-1.82.79-3.164 1.938-3.792 2.98.628-1.14 2.277-2.675 4.074-3.5 2.562-1.18 5.687-1.699 9.113-1.058"></path><path fill="#fff" d="M54.875 14.992c.336-.375.906-.078 1.266.656.359.739.379 1.637.039 2.012-.34.371-.907.078-1.266-.66-.36-.735-.379-1.637-.039-2.008M75.352 12.594c.18-.285.555-.121.84.371.281.492.367 1.121.183 1.406-.18.285-.554.117-.836-.37-.285-.493-.367-1.122-.187-1.407"></path><path fill="#f14278" d="M62.344 35.035c.227.563.441 1.133.645 1.68.714 1.914 2.113 3.222 4.925 3.086l.168-.012a5.176 5.176 0 00-.16-.594l-.023.004h-.02c-.039 0-.078 0-.113.004H67.535l-.058-.004h-.117l-.02-.004h-.027c-.035 0-.067-.004-.102-.004h-.004c-.031-.004-.066-.004-.097-.008h-.016c-.07-.007-.137-.011-.207-.02l-.016-.003h-.02c-2.046-.234-3.148-1.422-3.753-3.05-.14-.38-.29-.766-.441-1.157-.11.016-.215.043-.313.082"></path><path fill="#f14278" d="M66.715 39.766c.367.043.766.059 1.2.035a5.039 5.039 0 001.476-.297 2.05 2.05 0 00.113-.64l-.008.03c-.418.157-.875.25-1.308.29h-.02l-.062.004h-.004l-.059.004h-.004l-.02.004c-.042 0-.081 0-.12.004h-.02c-.039 0-.078 0-.113.003H67.535l-.058-.003h-.117l-.02-.004h-.027c-.035 0-.067-.004-.102-.004h-.004c-.031-.004-.066-.004-.097-.008h-.016c-.07-.008-.137-.012-.207-.02l-.016-.003h-.02l-.171-.024.035.629"></path><path fill="#7394ae" d="M61.582 66.152c2.715-.71 8.766.402 11.258 1.84 2.063 1.191 7.191 7.062 4.375 10.879-5.398-4.781-9.09-10.18-15.633-12.72"></path><path fill="#c6d8e7" d="M61.582 66.152c3.129-.3 8.984.777 11.117 2.137 1.574 1.004 6.762 6.105 4.336 10.383-1.543-.446-3.082-.89-4.621-1.336-3.602-3.758-7.23-7.426-10.832-11.184"></path><path fill="#a7bfd5" d="M77.551 75.105c.238 1.184.14 2.406-.516 3.566l-.773-.222c.227-.192.445-.43.656-.727a4.853 4.853 0 00.633-2.617"></path><path fill="#7394ae" d="M66.566 72.676c.14 4.527 5.977 8.984 8.723 7.383-3.809-3.938-3.875-4.473-8.723-7.383"></path><path fill="#c6d8e7" d="M66.566 72.676c1.05 4.516 5.684 8.363 8.43 7.05a180.057 180.057 0 00-3.328-8.155c-1.067-2.43-5.848-2.102-5.102 1.105"></path><path fill="#a7bfd5" d="M66.816 73.555c1.402 4.121 5.613 7.394 8.18 6.172l-2.5-1.73c.61.718.847 1.452.375 1.312-2.543-.77-5.274-4.113-6.055-5.754"></path><path fill="#7394ae" d="M72.16 77.172c.371 2.188 3.184 3.758 4.2 3.41 1.491-.512 1.605-3.418.374-4.996-.699 2.04-2.617 2.629-4.574 1.586"></path><path fill="#c6d8e7" d="M72.039 77.191c.742 1.832 3.2 3.266 4.234 2.996 1.243-.32 1.164-3.156.461-4.601-1.367.402-3.328 1.203-4.695 1.605"></path><path fill="#a7bfd5" d="M72.195 77.527c.883 1.668 3.106 2.914 4.078 2.66.45-.117.727-.562.863-1.156-.953 1.79-4.242-.664-4.941-1.504"></path><path fill="#7394ae" d="M84.168 63.641c-2.883-.172-5.035 4.324-4.73 7.453.312 3.242 2.738 6.504 3.976 5.238-1.758-4.09-.379-7.492.754-12.69"></path><path fill="#c6d8e7" d="M84.484 63.695c-2.758-.336-5.09 4.223-4.758 7.473.16 1.562 1.027 3.351 1.887 4.414.293.289.144-.121-.055-.719 1.715-2.668 4.352-8.937 2.926-11.168"></path><path fill="#a7bfd5" d="M79.707 70.887c.004.094.012.188.02.281.164 1.563 1.027 3.352 1.886 4.414.25.25.18-.02.028-.476a.328.328 0 01-.082-.051c-.813-1.008-1.633-2.668-1.852-4.168"></path><path fill="#7394ae" d="M85.734 77.473c-1.59 1.676-5.531-2.508-4.973-5.207 2.301-.367 3.297-.367 4.973 5.207"></path><path fill="#c6d8e7" d="M85.434 77.336c-1.238 1.14-4.434-2.473-4.754-3.93-1.488-4.367 3.387-9.082 4.762-10.188.93 3.094-.938 11.023-.008 14.117"></path><path fill="#a7bfd5" d="M85.434 77.336c-.855.79-2.648-.695-3.781-2.172.832.934 1.851 1.742 2.62 1.8.259.02.583-.245-.151-1.612.539.203 1.445 1.41 1.312 1.984"></path><path fill="#7394ae" d="M87.125 67.98c1.805 2.945-.195 8.793-.914 9.36-1.063.831-2.356-2.07-2.281-3.157 1.566-.469 2.28-3.601 3.195-6.203"></path><path fill="#c6d8e7" d="M87.125 67.949c1.074 4.16-.414 8.566-1.195 9.043-.676.41-1.817-1.957-2.41-3.766-.376-5.476 2.128-9.273 3.605-5.277"></path><path fill="#a7bfd5" d="M87.125 67.949c1.07 4.16-.414 8.566-1.195 9.043-.524.32-1.325-1.027-1.934-2.492.57 1.094 1.211 1.918 1.656 1.66.782-.45 2.215-4.336 1.461-8.242l.012.031"></path></g></svg>